<?xml version="1.0" standalone="no"?>
<!DOCTYPE svg PUBLIC "-//W3C//DTD SVG 1.1//EN" "http://www.w3.org/Graphics/SVG/1.1/DTD/svg11.dtd" >
<svg xmlns="http://www.w3.org/2000/svg" width="100%" height="100%">
<metadata>
Created by FontXChange 20100429 at Wed Jun 17 00:41:39 2015
 By Kamil Mendelski
Copyright (c) 1990 Adobe Systems Incorporated.  All Rights Reserved.Helvetica is a trademark of Linotype AG and/or its subsidiaries.
</metadata>
<defs>
<font id="HelveticaRoundedCondensed-Bold-4FUN" horiz-adv-x="240" >
  <font-face 
    font-family="Helvetica Rounded Condensed"
    font-weight="700"
    font-stretch="condensed"
    units-per-em="1000"
    panose-1="0 0 0 0 0 0 0 0 0 0"
    ascent="800"
    descent="-200"
    x-height="541"
    cap-height="733"
    bbox="-110 -216 990 965"
    underline-thickness="50"
    underline-position="-75"
    unicode-range="U+0020-FB02"
  />
<missing-glyph 
 />
    <glyph glyph-name=".notdef" 
 />
    <glyph glyph-name="space" unicode=" " 
 />
    <glyph glyph-name="exclam" unicode="!" horiz-adv-x="278" 
d="M72 663q0 70 67 70t67 -70v-154q0 -29 -4 -70l-19 -212q-4 -53 -44 -53t-44 53l-19 212q-4 41 -4 70v154zM85 117q23 22 54 22q32 0 54 -22t22 -54q0 -31 -22 -54q-22 -22 -54 -22q-31 0 -54 22q-22 23 -22 54q0 32 22 54z" />
    <glyph glyph-name="quotedbl" unicode="&#x22;" horiz-adv-x="426" 
d="M254 674q0 27 17 45q16 18 40 18t40 -18q17 -18 17 -45v-151q0 -27 -17 -45q-16 -18 -40 -18t-40 18q-17 18 -17 45v151zM58 674q0 27 17 45q16 18 40 18t40 -18q17 -18 17 -45v-151q0 -27 -17 -45q-16 -18 -40 -18t-40 18q-17 18 -17 45v151z" />
    <glyph glyph-name="numbersign" unicode="#" horiz-adv-x="480" 
d="M176 197l-21 -157q-5 -53 -54 -53q-17 0 -29 12q-12 13 -12 30q0 5 4 33l19 135h-39q-44 0 -44 48t44 48h51l16 121h-39q-44 0 -44 48t44 48h51l20 157q7 53 54 53q18 0 30 -12q12 -13 12 -30q0 -5 -4 -33l-18 -135h86l21 157q5 53 54 53q17 0 29 -12q12 -13 12 -30
q0 -5 -4 -33l-19 -135h39q45 0 45 -48t-45 -48h-51l-16 -121h39q44 0 44 -48t-44 -48h-51l-20 -157q-7 -53 -54 -53q-18 0 -30 12q-12 13 -12 30q0 5 4 33l18 135h-86zM290 414h-86l-15 -121h86z" />
    <glyph glyph-name="dollar" unicode="$" horiz-adv-x="480" 
d="M215 301l-64 41q-110 70 -110 190q0 81 46 132q47 54 128 56v26q0 27 23 27t23 -27v-26q70 0 117 -41q49 -43 49 -110q0 -24 -15 -41q-16 -17 -40 -17q-46 0 -59 59q-11 54 -52 54v-197l58 -34q127 -74 127 -195q0 -96 -48 -151q-49 -56 -137 -60v-77q0 -26 -23 -26
t-23 26v77q-78 0 -130 51q-51 51 -51 127q0 68 55 68q52 0 59 -66q8 -78 67 -84v218zM215 624q-60 -10 -60 -79q0 -45 60 -93v172zM261 83q28 4 46 32q17 26 17 60q0 68 -63 102v-194z" />
    <glyph glyph-name="percent" unicode="%" horiz-adv-x="870" 
d="M76 671q37 49 122 49t122 -49q32 -43 32 -133t-32 -133q-37 -49 -122 -49t-122 49q-32 43 -32 133t32 133zM145 527q0 -95 53 -95t53 95v33q0 84 -53 84t-53 -84v-33zM550 302q37 49 122 49t122 -49q32 -43 32 -133t-32 -133q-37 -49 -122 -49t-122 49q-32 43 -32 133
t32 133zM619 158q0 -95 53 -95t53 95v33q0 84 -53 84t-53 -84v-33zM550 719q12 26 43 26q35 0 35 -31q0 -15 -6 -29l-303 -697q-12 -26 -43 -26q-35 0 -35 31q0 16 6 29z" />
    <glyph glyph-name="ampersand" unicode="&#x26;" horiz-adv-x="630" 
d="M439 252q11 29 22 95q8 51 53 51q53 0 53 -62q0 -88 -62 -195l28 -46q20 -33 20 -54q0 -26 -19 -42q-18 -16 -45 -16q-30 0 -52 34l-18 26q-59 -56 -152 -56q-95 0 -150 59q-54 57 -54 151q0 139 137 228q-57 91 -57 145q0 69 46 110q46 40 118 40q73 0 115 -42
q37 -37 37 -94q0 -109 -108 -181zM255 329q-70 -51 -70 -117q0 -50 29 -85q29 -34 69 -34q48 0 85 40zM297 494l13 12q43 39 43 79q0 21 -13 35q-14 14 -34 14q-21 0 -35 -13q-14 -12 -14 -31q0 -28 13 -50z" />
    <glyph glyph-name="quoteright" unicode="&#x2019;" horiz-adv-x="222" 
d="M53 710q23 23 58 23q38 0 61 -31q19 -28 19 -65q0 -75 -45 -131q-42 -50 -88 -50q-27 0 -27 25q0 19 26 28q58 19 70 73q-9 -1 -21 -1q-37 0 -58 26q-17 21 -17 47q0 33 22 56z" />
    <glyph glyph-name="parenleft" unicode="(" horiz-adv-x="296" 
d="M122 623q61 132 111 132q43 0 43 -44q0 -9 -15 -42q-22 -48 -33 -81q-49 -137 -49 -311t49 -311q11 -33 33 -80q15 -34 15 -43q0 -44 -43 -44q-50 0 -111 132q-71 153 -71 346t71 346z" />
    <glyph glyph-name="parenright" unicode=")" horiz-adv-x="296" 
d="M174 -69q-61 -132 -111 -132q-43 0 -43 44q0 9 15 43q22 47 34 80q48 137 48 311t-48 311q-12 33 -34 81q-15 33 -15 42q0 44 43 44q50 0 111 -132q71 -153 71 -346t-71 -346z" />
    <glyph glyph-name="asterisk" unicode="*" horiz-adv-x="370" 
d="M299 640q40 15 51 -20q11 -33 -30 -47l-68 -22l42 -58q26 -35 -3 -55q-28 -21 -54 14l-42 58l-42 -58q-27 -35 -54 -14q-29 20 -3 55l42 58l-68 23q-42 13 -30 46q10 34 52 20l68 -22v72q0 43 35 43t35 -43v-72z" />
    <glyph glyph-name="plus" unicode="+" horiz-adv-x="600" 
d="M247 496q0 31 15 50q15 20 38 20t38 -20q15 -19 15 -50v-160h160q31 0 51 -16q19 -15 19 -37t-19 -37q-20 -16 -51 -16h-160v-160q0 -31 -15 -50q-15 -20 -38 -20t-38 20q-15 19 -15 50v160h-160q-31 0 -51 16q-19 15 -19 37t19 37q20 16 51 16h160v160z" />
    <glyph glyph-name="comma" unicode="," 
d="M62 116q23 23 58 23q38 0 61 -31q19 -28 19 -65q0 -75 -45 -131q-42 -50 -88 -50q-27 0 -27 25q0 19 26 28q58 19 70 73q-9 -1 -21 -1q-37 0 -58 26q-17 21 -17 47q0 33 22 56z" />
    <glyph glyph-name="hyphen" unicode="-" horiz-adv-x="333" 
d="M101 226q-62 0 -62 57t62 57h131q62 0 62 -57t-62 -57h-131z" />
    <glyph glyph-name="period" unicode="." 
d="M66 117q23 22 54 22q32 0 54 -22t22 -54q0 -31 -22 -54q-22 -22 -54 -22q-31 0 -54 22q-22 23 -22 54q0 32 22 54z" />
    <glyph glyph-name="slash" unicode="/" horiz-adv-x="333" 
d="M232 693q17 44 56 44q48 0 48 -36q0 -20 -6 -35l-229 -639q-16 -44 -56 -44q-48 0 -48 36q0 20 6 35z" />
    <glyph glyph-name="zero" unicode="0" horiz-adv-x="480" 
d="M174 214q0 -72 13 -100q15 -31 54 -31t54 31q13 28 13 100v279q0 72 -13 100q-15 31 -54 31t-54 -31q-13 -28 -13 -100v-279zM40 474q-1 111 31 167q46 79 170 79t170 -79q32 -56 31 -167v-242q1 -111 -31 -166q-47 -79 -170 -79q-124 0 -170 79q-32 55 -31 166v242z" />
    <glyph glyph-name="one" unicode="1" horiz-adv-x="333" 
d="M43 505q-57 0 -57 41q0 38 42 45q99 17 134 84q18 34 29 43q10 8 36 8q43 0 43 -54v-616q0 -31 -20 -50q-19 -19 -47 -19t-47 19q-20 19 -20 50v449h-93z" />
    <glyph glyph-name="two" unicode="2" horiz-adv-x="480" 
d="M95 0q-59 0 -59 57q0 131 134 265l47 47q87 87 87 160q0 90 -67 90q-63 0 -71 -98q-4 -57 -61 -57q-61 0 -61 74q0 82 50 131q51 51 138 51q206 0 206 -193q0 -105 -88 -193l-83 -83q-75 -75 -92 -137h197q72 0 72 -57t-72 -57h-277z" />
    <glyph glyph-name="three" unicode="3" horiz-adv-x="480" 
d="M94 250q63 0 67 -75q5 -92 74 -92q72 0 72 124q0 73 -21 100q-17 22 -62 26q-40 4 -54 15q-14 10 -14 32t12 31q12 10 50 17q43 8 59 30q16 24 16 82q0 84 -63 84q-53 0 -64 -67q-9 -61 -65 -61q-57 0 -57 61q0 73 45 116q48 47 139 47q199 0 199 -185q0 -119 -82 -148
q96 -36 96 -179q0 -221 -208 -221q-112 0 -164 69q-36 48 -36 114q0 80 61 80z" />
    <glyph glyph-name="four" unicode="4" horiz-adv-x="480" 
d="M255 539h-2l-133 -289h135v289zM255 144h-170q-73 0 -73 55q0 28 20 71l195 407q15 30 32 40q15 9 50 9q68 0 68 -63v-413h23q55 0 55 -53t-55 -53h-23v-84q0 -73 -61 -73t-61 73v84z" />
    <glyph glyph-name="five" unicode="5" horiz-adv-x="480" 
d="M159 448q38 38 107 38q175 0 175 -236q0 -127 -39 -188q-48 -75 -167 -75q-113 0 -163 69q-33 46 -33 108q0 78 62 78t66 -65q5 -94 68 -94q42 0 58 38q14 32 14 110q0 87 -18 123t-62 36q-30 0 -57 -35q-27 -36 -65 -36q-56 0 -56 59l15 279q2 50 44 50h243q72 0 72 -57
t-72 -57h-183z" />
    <glyph glyph-name="six" unicode="6" horiz-adv-x="480" 
d="M36 393q0 165 41 239q48 88 167 88q86 0 134 -36q43 -32 43 -83q0 -58 -59 -58q-36 0 -59 42q-23 39 -56 39q-77 0 -77 -142v-41q41 40 105 40q169 0 169 -226q0 -123 -38 -187q-49 -81 -163 -81q-129 0 -174 92q-33 68 -33 238v76zM183 122q16 -39 57 -39t57 39
q13 33 13 111q0 77 -13 109q-16 38 -57 38t-57 -38q-13 -32 -13 -109q0 -78 13 -111z" />
    <glyph glyph-name="seven" unicode="7" horiz-adv-x="444" 
d="M73 587q-30 0 -48 21q-15 18 -15 38q0 22 15 40q17 21 48 21h307q64 0 64 -50q0 -18 -39 -93q-124 -240 -149 -508q-7 -69 -73 -69q-61 0 -61 69q0 72 54 237q58 176 126 294h-229z" />
    <glyph glyph-name="eight" unicode="8" horiz-adv-x="480" 
d="M169 184q0 -101 71 -101t71 101v53q0 101 -71 101t-71 -101v-53zM240 434q65 0 65 95t-65 95t-65 -95t65 -95zM126 385q-79 40 -79 144q0 191 193 191t193 -191q0 -104 -79 -144q91 -42 91 -185q0 -213 -205 -213t-205 213q0 143 91 185z" />
    <glyph glyph-name="nine" unicode="9" horiz-adv-x="480" 
d="M444 314q0 -165 -41 -239q-48 -88 -167 -88q-86 0 -134 36q-43 32 -43 83q0 58 59 58q36 0 59 -42q23 -39 56 -39q77 0 77 142v41q-41 -40 -105 -40q-169 0 -169 226q0 123 38 187q49 81 163 81q129 0 174 -92q33 -68 33 -238v-76zM183 365q16 -38 57 -38t57 38
q13 32 13 109q0 78 -13 111q-16 39 -57 39t-57 -39q-13 -33 -13 -111q0 -77 13 -109z" />
    <glyph glyph-name="colon" unicode=":" 
d="M66 519q23 22 54 22q32 0 54 -22t22 -54q0 -31 -22 -54q-22 -22 -54 -22q-31 0 -54 22q-22 23 -22 54q0 32 22 54zM66 117q23 22 54 22q32 0 54 -22t22 -54q0 -31 -22 -54q-22 -22 -54 -22q-31 0 -54 22q-22 23 -22 54q0 32 22 54z" />
    <glyph glyph-name="semicolon" unicode=";" 
d="M62 116q23 23 58 23q38 0 61 -31q19 -28 19 -65q0 -75 -45 -131q-42 -50 -88 -50q-27 0 -27 25q0 19 26 28q58 19 70 73q-9 -1 -21 -1q-37 0 -58 26q-17 21 -17 47q0 33 22 56zM66 519q23 22 54 22q32 0 54 -22t22 -54q0 -31 -22 -54q-22 -22 -54 -22q-31 0 -54 22
q-22 23 -22 54q0 32 22 54z" />
    <glyph glyph-name="less" unicode="&#x3c;" horiz-adv-x="600" 
d="M60 226q-37 18 -37 57t37 57l407 187q29 14 55 14q23 0 40 -13q15 -12 15 -25q0 -39 -47 -59l-367 -161l367 -161q47 -20 47 -59q0 -13 -15 -25q-17 -13 -40 -13q-26 0 -55 14z" />
    <glyph glyph-name="equal" unicode="=" horiz-adv-x="600" 
d="M87 348q-31 0 -51 16q-19 15 -19 37t19 37q20 16 51 16h426q31 0 51 -16q19 -15 19 -37t-19 -37q-20 -16 -51 -16h-426zM87 112q-31 0 -51 16q-19 15 -19 37t19 37q20 16 51 16h426q31 0 51 -16q19 -15 19 -37t-19 -37q-20 -16 -51 -16h-426z" />
    <glyph glyph-name="greater" unicode="&#x3e;" horiz-adv-x="600" 
d="M437 283l-367 161q-47 20 -47 59q0 13 16 25q16 13 39 13q26 0 55 -14l407 -187q37 -18 37 -57t-37 -57l-407 -187q-29 -14 -55 -14q-23 0 -39 13q-16 12 -16 25q0 39 47 59z" />
    <glyph glyph-name="question" unicode="?" horiz-adv-x="481" 
d="M237 426q57 65 57 129q0 77 -62 77q-51 0 -59 -55q-8 -66 -62 -66q-60 0 -60 61q0 71 46 115q49 46 130 46q195 0 195 -187q0 -86 -75 -169l-29 -32q-55 -60 -61 -119q-5 -52 -57 -52q-57 0 -57 63q0 81 58 148zM146 117q23 22 54 22q32 0 54 -22t22 -54q0 -31 -22 -54
q-22 -22 -54 -22q-31 0 -54 22q-22 23 -22 54q0 32 22 54z" />
    <glyph glyph-name="at" unicode="@" horiz-adv-x="800" 
d="M379 253q51 0 82 32q28 30 28 76q0 80 -78 80q-43 0 -72 -32q-29 -30 -29 -72q0 -84 69 -84zM580 309q-5 -30 -5 -45q0 -19 20 -19q35 0 61 36q30 42 30 118q0 119 -76 185q-72 62 -196 62q-115 0 -196 -83q-81 -84 -81 -204q0 -132 83 -210q78 -75 203 -75q93 0 155 32
q62 31 64 31q40 0 40 -36q0 -31 -77 -72q-86 -46 -182 -46q-167 0 -282 106q-118 107 -118 270q0 161 116 270q114 108 278 108q152 0 254 -83q106 -87 106 -227q0 -148 -101 -225q-72 -55 -148 -55q-61 0 -70 43h-2q-40 -43 -112 -43q-62 0 -103 46q-45 51 -45 141
q0 85 61 153t139 68t126 -63l4 18q8 37 46 37q46 0 46 -44q0 -9 -4 -28z" />
    <glyph glyph-name="A" unicode="A" horiz-adv-x="519" 
d="M173 180l-27 -130q-13 -63 -70 -63q-63 0 -63 58q0 23 8 55l128 539q13 56 33 74q22 20 77 20q51 0 74 -20q23 -19 36 -74l127 -535q10 -44 10 -55q0 -62 -66 -62q-37 0 -54 18q-17 19 -27 69l-21 106h-165zM317 286l-59 299h-2l-61 -299h122z" />
    <glyph glyph-name="B" unicode="B" horiz-adv-x="519" 
d="M56 648q0 72 72 72h180q159 0 159 -186q0 -119 -75 -148q95 -35 95 -163q0 -97 -41 -155q-48 -68 -145 -68h-173q-72 0 -72 72v576zM190 101h80q77 0 77 119q0 106 -79 106h-78v-225zM190 427h61q82 0 82 99q0 93 -72 93h-71v-192z" />
    <glyph glyph-name="C" unicode="C" horiz-adv-x="500" 
d="M40 410q0 185 55 259q51 68 176 68q96 0 151 -53q51 -49 51 -127q0 -80 -68 -80q-38 0 -52 18q-14 16 -20 63q-10 73 -62 73q-50 0 -68 -40q-23 -51 -23 -202v-40q0 -147 12 -194q18 -66 75 -66q26 0 46 21q20 22 21 52q3 63 17 85q14 25 55 25q68 0 68 -79
q0 -210 -218 -210q-139 0 -187 104q-29 64 -29 209v114z" />
    <glyph glyph-name="D" unicode="D" horiz-adv-x="537" 
d="M190 106h62q56 0 79 46q26 52 26 185v58q0 123 -19 169q-22 50 -82 50h-66v-508zM56 648q0 72 72 72h175q103 0 149 -76q45 -74 45 -239v-93q0 -312 -200 -312h-169q-72 0 -72 72v576z" />
    <glyph glyph-name="E" unicode="E" horiz-adv-x="500" 
d="M190 120h206q70 0 70 -60t-70 -60h-268q-72 0 -72 72v576q0 72 72 72h261q70 0 70 -60t-70 -60h-199v-166h186q70 0 70 -60t-70 -60h-186v-194z" />
    <glyph glyph-name="F" unicode="F" horiz-adv-x="480" 
d="M190 56q0 -31 -20 -50q-19 -19 -47 -19t-47 19q-20 19 -20 50v592q0 72 72 72h248q70 0 70 -60t-70 -60h-186v-166h186q70 0 70 -60t-70 -60h-186v-258z" />
    <glyph glyph-name="G" unicode="G" horiz-adv-x="519" 
d="M473 42q0 -55 -52 -55q-53 0 -53 59v19h-2q-43 -78 -134 -78q-111 0 -155 96q-37 79 -37 250v73q0 182 53 257q52 74 176 74q100 0 156 -56q48 -49 48 -119q0 -80 -67 -80q-34 0 -49 20q-13 18 -18 66q-6 63 -76 63q-41 0 -59 -35q-24 -45 -24 -160v-100q0 -137 17 -187
q18 -56 72 -56q76 0 76 146v41h-55q-54 0 -54 57t58 57h112q67 0 67 -66v-286z" />
    <glyph glyph-name="H" unicode="H" horiz-adv-x="556" 
d="M190 328v-272q0 -31 -20 -50q-19 -19 -47 -19t-47 19q-20 19 -20 50v608q0 31 20 50q19 19 47 19t47 -19q20 -19 20 -50v-230h176v230q0 31 20 50q19 19 47 19t47 -19q20 -19 20 -50v-608q0 -31 -20 -50q-19 -19 -47 -19t-47 19q-20 19 -20 50v272h-176z" />
    <glyph glyph-name="I" unicode="I" horiz-adv-x="258" 
d="M62 664q0 31 20 50q19 19 47 19t47 -19q20 -19 20 -50v-608q0 -31 -20 -50q-19 -19 -47 -19t-47 19q-20 19 -20 50v608z" />
    <glyph glyph-name="J" unicode="J" horiz-adv-x="444" 
d="M254 664q0 31 20 50q19 19 47 19t47 -19q20 -19 20 -50v-504q0 -177 -186 -177q-178 0 -178 187q0 84 66 84q68 0 68 -94q0 -71 46 -71q50 0 50 74v501z" />
    <glyph glyph-name="K" unicode="K" horiz-adv-x="519" 
d="M56 664q0 31 20 50q19 19 47 19t47 -19q20 -19 20 -50v-264h2l160 291q24 42 62 42q28 0 47 -16q20 -17 20 -42q0 -23 -18 -52l-131 -211l156 -321q14 -28 14 -46q0 -25 -19 -41q-19 -17 -52 -17q-46 0 -72 54l-114 239l-55 -83v-141q0 -31 -20 -50q-19 -19 -47 -19
t-47 19q-20 19 -20 50v608z" />
    <glyph glyph-name="L" unicode="L" horiz-adv-x="481" 
d="M391 120q70 0 70 -60t-70 -60h-263q-72 0 -72 72v592q0 31 20 50q19 19 47 19t47 -19q20 -19 20 -50v-544h201z" />
    <glyph glyph-name="M" unicode="M" horiz-adv-x="704" 
d="M58 634q0 52 21 74q25 25 87 25q52 0 79 -23q28 -24 40 -84l66 -346h2l66 346q12 60 40 84q27 23 79 23q62 0 87 -25q21 -22 21 -74v-578q0 -31 -20 -50q-19 -19 -47 -19t-47 19q-20 19 -20 50v517h-2l-110 -542q-10 -44 -48 -44t-48 44l-110 542h-2v-517q0 -31 -20 -50
q-19 -19 -47 -19t-47 19q-20 19 -20 50v578z" />
    <glyph glyph-name="N" unicode="N" horiz-adv-x="574" 
d="M56 664q0 69 74 69q65 0 93 -68l159 -394h2v393q0 31 20 50q19 19 47 19t47 -19q20 -19 20 -50v-602q0 -35 -20 -55q-19 -20 -47 -20q-42 0 -62 13q-22 14 -38 55l-159 400h-2v-399q0 -31 -20 -50q-19 -19 -47 -19t-47 19q-20 19 -20 50v608z" />
    <glyph glyph-name="O" unicode="O" horiz-adv-x="520" 
d="M40 442q0 179 68 247q49 48 152 48t152 -48q68 -68 68 -247v-152q0 -186 -63 -255q-48 -52 -157 -52t-156 52q-64 69 -64 255v152zM180 290q0 -124 20 -166q16 -35 60 -35t60 35q20 42 20 166v152q0 111 -20 153q-18 36 -60 36t-60 -36q-20 -42 -20 -153v-152z" />
    <glyph glyph-name="P" unicode="P" horiz-adv-x="500" 
d="M56 648q0 72 72 72h167q182 0 182 -203q0 -91 -42 -148q-45 -63 -129 -63h-116v-250q0 -31 -20 -50q-19 -19 -47 -19t-47 19q-20 19 -20 50v592zM190 407h60q87 0 87 104q0 108 -80 108h-67v-212z" />
    <glyph glyph-name="Q" unicode="Q" horiz-adv-x="520" 
d="M40 442q0 179 68 247q49 48 152 48t152 -48q68 -68 68 -247v-152q0 -147 -39 -219l38 -36q29 -28 29 -52q0 -17 -14 -30t-30 -13q-25 0 -61 36l-28 29q-40 -22 -115 -22q-109 0 -156 52q-64 69 -64 255v152zM180 290q0 -124 20 -166q16 -35 60 -35q15 0 27 4l-6 6
q-18 18 -18 38t15 33q13 12 32 12q12 0 23 -11q7 41 7 119v152q0 111 -20 153q-18 36 -60 36t-60 -36q-20 -42 -20 -153v-152z" />
    <glyph glyph-name="R" unicode="R" horiz-adv-x="519" 
d="M56 648q0 72 72 72h184q162 0 162 -185q0 -127 -87 -163q50 -18 68 -54q15 -31 15 -99v-77q0 -20 5 -57q4 -37 4 -55q0 -43 -64 -43q-79 0 -82 68l-6 184q-3 75 -79 75h-58v-258q0 -31 -20 -50q-19 -19 -47 -19t-47 19q-20 19 -20 50v592zM190 415h52q92 0 92 102
q0 55 -19 78q-20 24 -67 24h-58v-204z" />
    <glyph glyph-name="S" unicode="S" horiz-adv-x="500" 
d="M132 371q-91 65 -91 178q0 91 63 142q58 46 149 46q102 0 156 -63q43 -50 43 -118t-66 -68q-38 0 -52 19q-11 14 -16 57q-8 67 -72 67q-31 0 -51 -18q-20 -19 -20 -51q0 -59 72 -107l99 -65q117 -77 117 -205q0 -95 -56 -147q-59 -55 -172 -55t-165 82q-33 52 -33 109
q0 91 68 91q61 0 66 -87q5 -89 80 -89q78 0 78 84q0 58 -68 107z" />
    <glyph glyph-name="T" unicode="T" horiz-adv-x="520" 
d="M433 720q70 0 70 -60t-70 -60h-106v-544q0 -31 -20 -50q-19 -19 -47 -19t-47 19q-20 19 -20 50v544h-106q-70 0 -70 60t70 60h346z" />
    <glyph glyph-name="U" unicode="U" horiz-adv-x="537" 
d="M51 664q0 31 20 50q19 19 47 19t47 -19q20 -19 20 -50v-460q0 -115 84 -115q83 0 83 115v460q0 31 20 50q19 19 47 19t47 -19q20 -19 20 -50v-473q0 -97 -54 -151q-57 -57 -163 -57t-163 57q-55 54 -55 151v473z" />
    <glyph glyph-name="V" unicode="V" horiz-adv-x="500" 
d="M28 617q-9 42 -9 51q0 27 19 45q20 20 50 20q57 0 68 -59l102 -532h2l88 520q12 71 67 71q66 0 66 -61q0 -17 -7 -54l-119 -559q-9 -44 -33 -59q-21 -13 -71 -13q-49 0 -72 21q-18 16 -27 56z" />
    <glyph glyph-name="W" unicode="W" horiz-adv-x="759" 
d="M310 42q-6 -33 -25 -45q-17 -10 -61 -10q-77 0 -88 59l-109 576q-7 40 -7 52q0 59 72 59q54 0 62 -56l82 -502h2l81 503q9 55 61 55t61 -55l90 -503h2l72 498q9 60 69 60q65 0 65 -62q0 -18 -6 -48l-102 -563q-9 -48 -26 -60q-17 -13 -69 -13t-68 15q-15 13 -23 63
l-66 384h-2z" />
    <glyph glyph-name="X" unicode="X" horiz-adv-x="500" 
d="M173 368l-125 253q-16 33 -16 52q0 26 21 44q19 16 48 16q51 0 77 -65l71 -178l86 194q22 49 62 49q70 0 70 -59q0 -20 -11 -42l-131 -264l138 -281q12 -26 12 -39q0 -25 -18 -42q-19 -19 -51 -19q-49 0 -70 50l-90 205l-93 -213q-18 -42 -62 -42q-29 0 -47 16
q-19 17 -19 44q0 22 21 65z" />
    <glyph glyph-name="Y" unicode="Y" horiz-adv-x="481" 
d="M174 296l-146 329q-12 28 -12 47q0 61 66 61q31 0 45 -13q13 -12 28 -50l86 -228l91 238q20 53 69 53q28 0 46 -17q18 -16 18 -37q0 -19 -10 -41l-147 -335v-247q0 -31 -20 -50q-19 -19 -47 -19t-47 19q-20 19 -20 50v240z" />
    <glyph glyph-name="Z" unicode="Z" horiz-adv-x="519" 
d="M110 600q-70 0 -70 60t70 60h308q71 0 71 -59q0 -30 -25 -71l-273 -470h235q70 0 70 -60t-70 -60h-333q-33 0 -53 21q-17 18 -17 42q0 23 22 61l272 476h-207z" />
    <glyph glyph-name="bracketleft" unicode="[" horiz-adv-x="296" 
d="M69 661q0 72 77 72h83q48 0 48 -48t-48 -48h-38v-720h38q48 0 48 -48t-48 -48h-83q-77 0 -77 72v768z" />
    <glyph glyph-name="backslash" unicode="\" horiz-adv-x="333" 
d="M3 666q-6 15 -6 35q0 36 48 36q40 0 56 -44l229 -639q6 -15 6 -35q0 -36 -48 -36q-39 0 -56 44z" />
    <glyph glyph-name="bracketright" unicode="]" horiz-adv-x="296" 
d="M105 637h-38q-48 0 -48 48t48 48h83q77 0 77 -72v-768q0 -72 -77 -72h-83q-48 0 -48 48t48 48h38v720z" />
    <glyph glyph-name="asciicircum" unicode="^" horiz-adv-x="600" 
d="M234 677q23 43 66 43t66 -43l154 -280q13 -25 13 -44q0 -36 -47 -36q-43 0 -65 40l-121 223l-121 -223q-22 -40 -65 -40q-47 0 -47 36q0 19 13 44z" />
    <glyph glyph-name="underscore" unicode="_" horiz-adv-x="500" 
d="M0 -125q-12 0 -12 25t12 25h500q12 0 12 -25t-12 -25h-500z" />
    <glyph glyph-name="quoteleft" unicode="&#x2018;" horiz-adv-x="222" 
d="M77 683q41 50 87 50q27 0 27 -25q0 -19 -26 -28q-58 -19 -70 -73q9 1 21 1q37 0 58 -26q17 -21 17 -47q0 -33 -22 -56q-23 -23 -58 -23q-38 0 -61 32q-19 27 -19 64q0 75 46 131z" />
    <glyph glyph-name="a" unicode="a" horiz-adv-x="444" 
d="M395 116q0 -20 4 -47q3 -28 3 -34q0 -48 -61 -48q-64 0 -64 69l-2 -1q-31 -68 -111 -68q-126 0 -126 145q0 117 87 163l109 57q39 20 39 57q0 54 -47 54q-53 0 -60 -64q-5 -39 -58 -39q-64 0 -64 50q0 68 50 107q46 37 120 37q111 0 152 -47q29 -34 29 -113v-278z
M273 280l-43 -30q-64 -45 -64 -103q0 -64 43 -64q29 0 47 29q17 28 17 72v96z" />
    <glyph glyph-name="b" unicode="b" horiz-adv-x="463" 
d="M181 220q0 -132 61 -132q31 0 42 37q9 30 9 105v71q0 89 -11 121q-10 31 -41 31q-60 0 -60 -131v-102zM59 660q0 73 61 73t61 -73v-169h2q34 63 108 63q75 0 106 -64q24 -49 24 -147v-145q0 -98 -24 -147q-31 -64 -106 -64q-76 0 -108 63h-2q0 -27 -17 -45t-44 -18
q-61 0 -61 73v600z" />
    <glyph glyph-name="c" unicode="c" horiz-adv-x="426" 
d="M42 320q0 117 28 166q40 68 151 68q92 0 137 -56q32 -40 32 -92q0 -69 -60 -69q-62 0 -62 69q0 52 -46 52q-33 0 -44 -36q-8 -26 -8 -91v-120q0 -69 11 -98q12 -30 41 -30q45 0 46 55q4 88 62 88q60 0 60 -71q0 -60 -30 -104q-44 -64 -139 -64q-111 0 -151 68
q-28 49 -28 166v99z" />
    <glyph glyph-name="d" unicode="d" horiz-adv-x="463" 
d="M170 230q0 -75 9 -105q11 -37 42 -37q61 0 61 132v102q0 131 -60 131q-31 0 -41 -31q-11 -32 -11 -121v-71zM42 343q0 98 24 147q31 64 106 64q74 0 108 -63h2v169q0 73 61 73t61 -73v-600q0 -73 -61 -73q-27 0 -44 18t-17 45h-2q-32 -63 -108 -63q-75 0 -106 64
q-24 49 -24 147v145z" />
    <glyph glyph-name="e" unicode="e" horiz-adv-x="426" 
d="M272 340v45q0 73 -53 73t-53 -73v-45h106zM38 327q0 118 31 165q40 62 155 62q93 0 133 -53q37 -50 37 -160q0 -44 -11 -62q-15 -25 -57 -25h-160v-55q0 -58 9 -82q12 -34 46 -34q19 0 33 17q13 17 14 39q2 65 60 65q62 0 62 -60q0 -73 -46 -115q-45 -42 -120 -42
q-115 0 -155 62q-31 47 -31 165v113z" />
    <glyph glyph-name="f" unicode="f" horiz-adv-x="259" 
d="M67 450h-13q-54 0 -54 45q0 46 54 46h13v72q0 67 33 95q30 25 101 25q61 0 61 -54q0 -41 -37 -42q-22 -1 -29 -11t-7 -35v-50h19q54 0 54 -46q0 -45 -54 -45h-19v-390q0 -73 -61 -73t-61 73v390z" />
    <glyph glyph-name="g" unicode="g" horiz-adv-x="463" 
d="M170 248q0 -89 11 -121q10 -31 41 -31q60 0 60 131v95q0 131 -58 131q-54 0 -54 -119v-86zM42 351q0 203 130 203q82 0 112 -73h2q0 73 60 73q58 0 58 -73v-511q0 -177 -183 -177q-160 0 -160 101q0 54 61 54q39 0 54 -36q14 -33 42 -33q38 0 52 26q12 23 12 81v75h-2
q-34 -61 -108 -61q-75 0 -106 64q-24 49 -24 147v140z" />
    <glyph glyph-name="h" unicode="h" horiz-adv-x="463" 
d="M54 660q0 73 61 73t61 -73v-176h2q30 70 114 70q117 0 117 -134v-360q0 -73 -61 -73t-61 73v331q0 57 -47 57q-64 0 -64 -97v-291q0 -73 -61 -73t-61 73v600z" />
    <glyph glyph-name="i" unicode="i" 
d="M59 481q0 73 61 73t61 -73v-421q0 -73 -61 -73t-61 73v421zM70 717q21 20 50 20t50 -20q20 -21 20 -50t-20 -50q-21 -20 -50 -20t-50 20q-20 21 -20 50t20 50z" />
    <glyph glyph-name="j" unicode="j" 
d="M59 481q0 73 61 73t61 -73v-572q0 -116 -124 -116q-57 0 -57 52q0 38 41 48q18 4 18 43v545zM70 717q21 20 50 20t50 -20q20 -21 20 -50t-20 -50q-21 -20 -50 -20t-50 20q-20 21 -20 50t20 50z" />
    <glyph glyph-name="k" unicode="k" horiz-adv-x="444" 
d="M54 660q0 73 61 73t61 -73v-323h2l106 166q32 51 66 51q22 0 40 -13q20 -15 20 -39q0 -19 -16 -42l-92 -132l111 -256q7 -15 7 -35q0 -22 -18 -36q-17 -14 -42 -14q-46 0 -67 47l-78 184l-39 -50v-108q0 -73 -61 -73t-61 73v600z" />
    <glyph glyph-name="l" unicode="l" 
d="M59 660q0 73 61 73t61 -73v-600q0 -73 -61 -73t-61 73v600z" />
    <glyph glyph-name="m" unicode="m" horiz-adv-x="686" 
d="M636 60q0 -73 -61 -73t-61 73v331q0 57 -47 57q-63 0 -63 -97v-291q0 -73 -61 -73t-61 73v331q0 57 -47 57q-63 0 -63 -97v-291q0 -73 -61 -73t-61 73v421q0 73 61 73t61 -70h2q30 70 114 70q76 0 109 -61q49 61 122 61q117 0 117 -134v-360z" />
    <glyph glyph-name="n" unicode="n" horiz-adv-x="463" 
d="M54 481q0 73 61 73t61 -70h2q30 70 114 70q117 0 117 -134v-360q0 -73 -61 -73t-61 73v331q0 57 -47 57q-64 0 -64 -97v-291q0 -73 -61 -73t-61 73v421z" />
    <glyph glyph-name="o" unicode="o" horiz-adv-x="444" 
d="M166 207q0 -73 13 -99q12 -25 43 -25t43 25q13 26 13 99v129q0 70 -14 98q-13 24 -42 24t-41 -24q-15 -28 -15 -98v-129zM38 344q0 210 184 210t184 -210v-147q0 -210 -184 -210t-184 210v147z" />
    <glyph glyph-name="p" unicode="p" horiz-adv-x="463" 
d="M181 215q0 -132 61 -132q31 0 42 37q9 30 9 105v76q0 89 -11 121q-10 31 -41 31q-60 0 -60 -131v-107zM59 481q0 73 61 73t61 -73h2q33 73 108 73t106 -64q24 -49 24 -147v-145q0 -98 -24 -147q-31 -64 -106 -64t-108 61h-2v-182q0 -73 -61 -73t-61 73v615z" />
    <glyph glyph-name="q" unicode="q" horiz-adv-x="463" 
d="M282 322q0 131 -60 131q-31 0 -41 -31q-11 -32 -11 -121v-76q0 -75 9 -105q11 -37 42 -37q61 0 61 132v107zM404 -134q0 -73 -61 -73t-61 73v182h-2q-33 -61 -108 -61t-106 64q-24 49 -24 147v145q0 98 24 147q31 64 106 64t108 -73h2q0 73 61 73t61 -73v-615z" />
    <glyph glyph-name="r" unicode="r" horiz-adv-x="333" 
d="M54 488q0 66 57 66t57 -66v-51h2q31 117 91 117t60 -79q0 -73 -76 -73q-30 0 -49 -19q-20 -20 -20 -55v-268q0 -73 -61 -73t-61 73v428z" />
    <glyph glyph-name="s" unicode="s" horiz-adv-x="407" 
d="M118 265q-82 61 -82 143q0 71 47 110q44 36 120 36q86 0 131 -50q33 -37 33 -83q0 -60 -64 -60q-47 0 -50 47q-3 55 -53 55q-42 0 -42 -42q0 -32 27 -52l75 -57q64 -48 87 -77q29 -38 29 -89q0 -77 -51 -119q-48 -40 -126 -40q-89 0 -133 51q-35 40 -35 98q0 61 58 61
t64 -75q4 -44 53 -44q48 0 48 50q0 35 -43 68z" />
    <glyph glyph-name="t" unicode="t" horiz-adv-x="259" 
d="M67 450h-13q-54 0 -54 45q0 46 54 46h13v93q0 73 61 73t61 -73v-93h28q54 0 54 -46q0 -45 -54 -45h-28v-318q0 -36 33 -38q45 -2 45 -43q0 -57 -77 -57q-123 0 -123 100v356z" />
    <glyph glyph-name="u" unicode="u" horiz-adv-x="463" 
d="M54 481q0 73 61 73t61 -73v-331q0 -57 47 -57q64 0 64 97v291q0 73 61 73t61 -73v-421q0 -73 -61 -73t-61 70h-2q-30 -70 -114 -70q-117 0 -117 134v360z" />
    <glyph glyph-name="v" unicode="v" horiz-adv-x="426" 
d="M27 470q-5 20 -5 28q0 26 19 42q18 14 43 14q58 0 69 -64l64 -355h2l61 355q11 64 64 64q60 0 60 -52q0 -19 -6 -42l-98 -418q-14 -55 -86 -55q-46 0 -65 19q-16 15 -26 58z" />
    <glyph glyph-name="w" unicode="w" horiz-adv-x="648" 
d="M30 456q-4 17 -4 36q0 62 62 62q56 0 66 -72l50 -335h2l51 307q9 55 21 76q15 24 45 24q47 0 57 -56l68 -351h2l50 341q10 66 65 66q25 0 41 -16q16 -17 16 -45q0 -13 -4 -32l-82 -398q-8 -41 -23 -57q-18 -19 -59 -19q-42 0 -62 23q-16 19 -25 68l-43 225h-2l-46 -249
q-12 -67 -81 -67q-66 0 -83 82z" />
    <glyph glyph-name="x" unicode="x" horiz-adv-x="407" 
d="M133 274l-86 161q-20 39 -20 62q0 57 62 57q41 0 64 -49l53 -111l57 119q20 41 57 41q62 0 62 -57q0 -19 -22 -60l-87 -158l94 -174q21 -40 21 -61q0 -24 -19 -40q-19 -17 -47 -17q-42 0 -59 39l-61 134l-67 -135q-19 -38 -51 -38q-28 0 -46 15q-19 16 -19 41q0 20 16 49
z" />
    <glyph glyph-name="y" unicode="y" horiz-adv-x="426" 
d="M24 465q-5 28 -5 32q0 57 65 57q55 0 63 -47l71 -377h2l60 357q12 67 66 67q61 0 61 -54q0 -11 -7 -39l-127 -535q-19 -81 -47 -106q-30 -27 -106 -27q-57 0 -57 53q0 41 48 46q21 2 27 6q12 7 12 28q0 15 -4 30z" />
    <glyph glyph-name="z" unicode="z" horiz-adv-x="426" 
d="M334 541q63 0 63 -42q0 -24 -22 -63l-193 -330h157q61 0 61 -52q0 -54 -61 -54h-254q-59 0 -59 51q0 24 17 54l193 330h-147q-61 0 -61 52q0 54 61 54h245z" />
    <glyph glyph-name="braceleft" unicode="{" horiz-adv-x="314" 
d="M87 162q0 67 -42 67q-41 0 -41 48t41 48q42 0 42 67v208q0 133 118 133h65q40 0 40 -48t-40 -48h-22q-39 0 -39 -59v-197q0 -94 -95 -103v-2q95 -9 95 -103v-197q0 -59 39 -59h22q40 0 40 -48t-40 -48h-65q-118 0 -118 133v208z" />
    <glyph glyph-name="bar" unicode="|" horiz-adv-x="222" 
d="M54 664q0 73 57 73t57 -73v-608q0 -73 -57 -73t-57 73v608z" />
    <glyph glyph-name="braceright" unicode="}" horiz-adv-x="314" 
d="M227 392q0 -67 42 -67q41 0 41 -48t-41 -48q-42 0 -42 -67v-208q0 -133 -118 -133h-65q-40 0 -40 48t40 48h22q39 0 39 59v197q0 94 95 103v2q-95 9 -95 103v197q0 59 -39 59h-22q-40 0 -40 48t40 48h65q118 0 118 -133v-208z" />
    <glyph glyph-name="asciitilde" unicode="~" horiz-adv-x="600" 
d="M79 328q41 35 103 35q51 0 124 -27q75 -27 99 -27q29 0 60 24q32 23 51 23q43 0 43 -43t-39 -75q-42 -35 -108 -35q-40 0 -119 27t-98 27q-29 0 -60 -24q-32 -24 -51 -24q-43 0 -43 44q0 42 38 75z" />
    <glyph glyph-name="exclamdown" unicode="&#xa1;" horiz-adv-x="278" 
d="M72 32q0 29 4 70l19 212q4 53 44 53t44 -53l19 -212q4 -41 4 -70v-154q0 -70 -67 -70t-67 70v154zM85 532q23 22 54 22q32 0 54 -22t22 -54q0 -31 -22 -54q-22 -22 -54 -22q-31 0 -54 22q-22 23 -22 54q0 32 22 54z" />
    <glyph glyph-name="cent" unicode="&#xa2;" horiz-adv-x="480" 
d="M183 199q0 -27 1 -38h2l75 296q-1 1 -6 1q-47 0 -59 -30q-13 -30 -13 -141v-88zM61 320q0 117 29 166q40 68 155 68q26 0 40 -2l11 44q10 37 31 37q17 0 17 -16q0 -10 -4 -23l-13 -50q97 -26 97 -146q0 -60 -53 -60q-31 0 -42 15q-11 12 -16 53q-3 23 -12 34l-88 -348
q12 -9 36 -9q60 0 62 65q1 80 58 80q56 0 56 -70q0 -98 -53 -138q-43 -33 -132 -33q-31 0 -52 4l-19 -73q-7 -28 -27 -28q-18 0 -18 20q0 12 4 27l17 69q-84 37 -84 215v99z" />
    <glyph glyph-name="sterling" unicode="&#xa3;" horiz-adv-x="480" 
d="M328 386q47 0 47 -43t-47 -43h-81q8 -22 8 -42q0 -82 -94 -160l2 -2q41 15 78 15q29 0 61 -9t50 -9q17 0 37 7q20 6 34 6q47 0 47 -48q0 -35 -37 -54q-33 -17 -83 -17q-32 0 -90 14q-57 14 -82 14q-21 0 -54 -11q-28 -10 -48 -10q-41 0 -41 55q0 15 49 67q49 53 49 109
q0 42 -10 75h-54q-47 0 -47 43t47 43h16q-35 78 -35 137q0 89 61 144q59 53 151 53q93 0 146 -52q48 -47 48 -118q0 -65 -66 -65q-53 0 -62 64q-10 70 -71 70q-39 0 -60 -30q-19 -26 -19 -66q0 -55 39 -137h111z" />
    <glyph glyph-name="fraction" unicode="&#x2044;" horiz-adv-x="167" 
d="M199 719q12 26 43 26q35 0 35 -31q0 -15 -6 -29l-303 -697q-12 -26 -43 -26q-35 0 -35 31q0 16 6 29z" />
    <glyph glyph-name="yen" unicode="&#xa5;" horiz-adv-x="480" 
d="M176 280h-81q-49 0 -49 41q0 40 49 40h53l-119 266q-10 22 -10 40q0 22 17 37q18 16 47 16q42 0 62 -53l95 -257l95 257q20 53 62 53q29 0 47 -16q17 -15 17 -37q0 -18 -10 -40l-119 -266h65q49 0 49 -40q0 -41 -49 -41h-93v-64h93q49 0 49 -40q0 -41 -49 -41h-93v-80
q0 -30 -20 -49q-18 -19 -44 -19t-44 19q-20 19 -20 49v80h-81q-49 0 -49 41q0 40 49 40h81v64z" />
    <glyph glyph-name="florin" unicode="&#x192;" horiz-adv-x="480" 
d="M97 300q-47 0 -47 43t47 43h72l22 194q15 140 147 140q74 0 74 -59q0 -52 -47 -55q-26 -1 -36 -15q-9 -11 -13 -42l-19 -163h68q47 0 47 -43t-47 -43h-76l-30 -288q-16 -161 -145 -161q-84 0 -84 60q0 50 60 54q38 1 46 88l25 247h-64z" />
    <glyph glyph-name="section" unicode="&#xa7;" horiz-adv-x="481" 
d="M128 148q-94 73 -94 162q0 99 77 149q-44 45 -44 111t39 112q47 55 138 55q85 0 133 -42q41 -36 41 -87q0 -25 -18 -41t-45 -16q-40 0 -56 47q-14 43 -51 43q-59 0 -59 -59q0 -40 60 -85l89 -68q109 -86 109 -173q0 -89 -79 -142l12 -14q39 -46 39 -104q0 -85 -54 -133
q-51 -44 -134 -44q-90 0 -139 50q-40 39 -40 89q0 60 62 60q44 0 56 -49q13 -54 67 -54q60 0 60 62q0 45 -70 97zM297 179q36 24 36 56q0 36 -62 85l-87 69q-36 -21 -36 -60q0 -33 45 -68z" />
    <glyph glyph-name="currency" unicode="&#xa4;" horiz-adv-x="480" 
d="M39 220q-39 60 -39 133t39 133l-23 20q-14 13 -14 32t15 34q14 15 33 15q24 0 39 -16l18 -18q57 40 133 40q77 0 132 -40l18 18q16 16 39 16q19 0 33 -15q15 -15 15 -34t-14 -32l-23 -20q40 -62 40 -133t-40 -133l23 -20q14 -13 14 -32t-15 -34q-14 -15 -33 -15
q-22 0 -39 16l-18 18q-55 -40 -132 -40q-76 0 -133 40l-18 -18q-16 -16 -39 -16q-19 0 -33 15q-15 15 -15 34t14 32zM154 260q31 -33 86 -33t86 33q32 33 32 93t-32 93q-31 33 -86 33t-86 -33q-32 -33 -32 -93t32 -93z" />
    <glyph glyph-name="quotesingle" unicode="'" horiz-adv-x="222" 
d="M54 674q0 27 17 45q16 18 40 18t40 -18q17 -18 17 -45v-151q0 -27 -17 -45q-16 -18 -40 -18t-40 18q-17 18 -17 45v151z" />
    <glyph glyph-name="quotedblleft" unicode="&#x201c;" horiz-adv-x="426" 
d="M276 683q41 50 87 50q27 0 27 -25q0 -19 -26 -28q-58 -19 -70 -73q9 1 21 1q37 0 58 -26q17 -21 17 -47q0 -33 -22 -56q-23 -23 -58 -23q-38 0 -61 32q-19 27 -19 64q0 75 46 131zM82 683q41 50 87 50q27 0 27 -25q0 -19 -26 -28q-58 -19 -70 -73q9 1 21 1q37 0 58 -26
q17 -21 17 -47q0 -33 -22 -56q-23 -23 -58 -23q-38 0 -61 32q-19 27 -19 64q0 75 46 131z" />
    <glyph glyph-name="guillemotleft" unicode="&#xab;" horiz-adv-x="426" 
d="M366 219q27 -24 27 -38q0 -44 -44 -44q-17 0 -31 14l-72 65q-36 32 -36 67t36 67l72 65q14 14 31 14q44 0 44 -44q0 -14 -27 -38l-73 -64zM189 219q27 -24 27 -38q0 -44 -44 -44q-17 0 -31 14l-72 65q-36 32 -36 67t36 67l72 65q14 14 31 14q44 0 44 -44q0 -14 -27 -38
l-73 -64z" />
    <glyph glyph-name="guilsinglleft" unicode="&#x2039;" horiz-adv-x="259" 
d="M194 219q27 -24 27 -38q0 -44 -44 -44q-17 0 -31 14l-72 65q-36 32 -36 67t36 67l72 65q14 14 31 14q44 0 44 -44q0 -14 -27 -38l-73 -64z" />
    <glyph glyph-name="guilsinglright" unicode="&#x203a;" horiz-adv-x="259" 
d="M65 347q-27 24 -27 38q0 44 44 44q17 0 31 -14l72 -65q36 -32 36 -67t-36 -67l-72 -65q-14 -14 -31 -14q-44 0 -44 44q0 14 27 38l73 64z" />
    <glyph glyph-name="uniFB01" unicode="&#xfb01;" horiz-adv-x="500" 
d="M319 481q0 73 61 73t61 -73v-421q0 -73 -61 -73t-61 73v421zM330 717q21 20 50 20t50 -20q20 -21 20 -50t-20 -50q-21 -20 -50 -20t-50 20q-20 21 -20 50t20 50zM67 450h-13q-54 0 -54 45q0 46 54 46h13v72q0 67 33 95q30 25 101 25q61 0 61 -54q0 -41 -37 -42
q-22 -1 -29 -11t-7 -35v-50h19q54 0 54 -46q0 -45 -54 -45h-19v-390q0 -73 -61 -73t-61 73v390z" />
    <glyph glyph-name="uniFB02" unicode="&#xfb02;" horiz-adv-x="500" 
d="M319 660q0 73 61 73t61 -73v-600q0 -73 -61 -73t-61 73v600zM67 450h-13q-54 0 -54 45q0 46 54 46h13v72q0 67 33 95q30 25 101 25q61 0 61 -54q0 -41 -37 -42q-22 -1 -29 -11t-7 -35v-50h19q54 0 54 -46q0 -45 -54 -45h-19v-390q0 -73 -61 -73t-61 73v390z" />
    <glyph glyph-name="endash" unicode="&#x2013;" horiz-adv-x="500" 
d="M72 226q-62 0 -62 57t62 57h356q62 0 62 -57t-62 -57h-356z" />
    <glyph glyph-name="dagger" unicode="&#x2020;" horiz-adv-x="480" 
d="M77 380q-58 0 -58 53t58 53h102v174q0 73 61 73t61 -73v-174h102q58 0 58 -53t-58 -53h-102v-494q0 -73 -61 -73t-61 73v494h-102z" />
    <glyph glyph-name="daggerdbl" unicode="&#x2021;" horiz-adv-x="480" 
d="M179 412h-102q-58 0 -58 53t58 53h102v142q0 73 61 73t61 -73v-142h102q58 0 58 -53t-58 -53h-102v-278h102q58 0 58 -53t-58 -53h-102v-142q0 -73 -61 -73t-61 73v142h-102q-58 0 -58 53t58 53h102v278z" />
    <glyph glyph-name="periodcentered" unicode="&#xb7;" 
d="M66 359q23 22 54 22q32 0 54 -22t22 -54q0 -31 -22 -54q-22 -22 -54 -22q-31 0 -54 22q-22 23 -22 54q0 32 22 54z" />
    <glyph glyph-name="paragraph" unicode="&#xb6;" horiz-adv-x="481" 
d="M162 371q-60 0 -100 45q-42 48 -42 126q0 178 161 178h211q49 0 49 -60v-764q0 -60 -50 -60q-51 0 -51 60v733h-77v-733q0 -60 -51 -60q-50 0 -50 60v475z" />
    <glyph glyph-name="bullet" unicode="&#x2022;" horiz-adv-x="500" 
d="M123 487q53 53 127 53t127 -53t53 -127t-53 -127t-127 -53t-127 53t-53 127t53 127z" />
    <glyph glyph-name="quotesinglbase" unicode="&#x201a;" horiz-adv-x="222" 
d="M53 116q23 23 58 23q38 0 61 -31q19 -28 19 -65q0 -75 -45 -131q-42 -50 -88 -50q-27 0 -27 25q0 19 26 28q58 19 70 73q-9 -1 -21 -1q-37 0 -58 26q-17 21 -17 47q0 33 22 56z" />
    <glyph glyph-name="quotedblbase" unicode="&#x201e;" horiz-adv-x="426" 
d="M58 116q23 23 58 23q38 0 61 -31q19 -28 19 -65q0 -75 -45 -131q-42 -50 -88 -50q-27 0 -27 25q0 19 26 28q58 19 70 73q-9 -1 -21 -1q-37 0 -58 26q-17 21 -17 47q0 33 22 56zM252 116q23 23 58 23q38 0 61 -31q19 -28 19 -65q0 -75 -45 -131q-42 -50 -88 -50
q-27 0 -27 25q0 19 26 28q58 19 70 73q-9 -1 -21 -1q-37 0 -58 26q-17 21 -17 47q0 33 22 56z" />
    <glyph glyph-name="quotedblright" unicode="&#x201d;" horiz-adv-x="426" 
d="M58 710q23 23 58 23q38 0 61 -31q19 -28 19 -65q0 -75 -45 -131q-42 -50 -88 -50q-27 0 -27 25q0 19 26 28q58 19 70 73q-9 -1 -21 -1q-37 0 -58 26q-17 21 -17 47q0 33 22 56zM252 710q23 23 58 23q38 0 61 -31q19 -28 19 -65q0 -75 -45 -131q-42 -50 -88 -50
q-27 0 -27 25q0 19 26 28q58 19 70 73q-9 -1 -21 -1q-37 0 -58 26q-17 21 -17 47q0 33 22 56z" />
    <glyph glyph-name="guillemotright" unicode="&#xbb;" horiz-adv-x="426" 
d="M60 347q-27 24 -27 38q0 44 44 44q17 0 31 -14l72 -65q36 -32 36 -67t-36 -67l-72 -65q-14 -14 -31 -14q-44 0 -44 44q0 14 27 38l73 64zM237 347q-27 24 -27 38q0 44 44 44q17 0 31 -14l72 -65q36 -32 36 -67t-36 -67l-72 -65q-14 -14 -31 -14q-44 0 -44 44q0 14 27 38
l73 64z" />
    <glyph glyph-name="ellipsis" unicode="&#x2026;" horiz-adv-x="1000" 
d="M113 117q23 22 54 22q32 0 54 -22t22 -54q0 -31 -22 -54q-22 -22 -54 -22q-31 0 -54 22q-22 23 -22 54q0 32 22 54zM446 117q23 22 54 22q32 0 54 -22t22 -54q0 -31 -22 -54q-22 -22 -54 -22q-31 0 -54 22q-22 23 -22 54q0 32 22 54zM779 117q23 22 54 22q32 0 54 -22
t22 -54q0 -31 -22 -54q-22 -22 -54 -22q-31 0 -54 22q-22 23 -22 54q0 32 22 54z" />
    <glyph glyph-name="perthousand" unicode="&#x2030;" horiz-adv-x="1000" 
d="M466 87q10 -24 40 -24t40 24q8 19 8 74t-8 75q-10 23 -40 23t-40 -23q-8 -20 -8 -75t8 -74zM506 335q144 0 144 -167q0 -90 -24 -129q-33 -52 -120 -52t-120 52q-24 39 -24 129q0 167 144 167zM800 87q10 -24 40 -24t40 24q8 19 8 74t-8 75q-10 23 -40 23t-40 -23
q-8 -20 -8 -75t8 -74zM840 335q144 0 144 -167q0 -90 -24 -129q-33 -52 -120 -52t-120 52q-24 39 -24 129q0 167 144 167zM120 472q10 -24 40 -24t40 24q8 19 8 74t-8 75q-10 23 -40 23t-40 -23q-8 -20 -8 -75t8 -74zM160 720q144 0 144 -167q0 -90 -24 -129
q-33 -52 -120 -52t-120 52q-24 39 -24 129q0 167 144 167zM163 -10q-17 -28 -43 -28q-37 0 -37 31q0 13 10 30l413 694q17 28 43 28q37 0 37 -31q0 -13 -10 -30z" />
    <glyph glyph-name="questiondown" unicode="&#xbf;" horiz-adv-x="481" 
d="M163 196q55 60 61 119q5 52 57 52q57 0 57 -63q0 -81 -58 -148l-36 -41q-57 -65 -57 -129q0 -77 62 -77q51 0 59 55q8 66 62 66q60 0 60 -61q0 -71 -46 -115q-49 -46 -130 -46q-195 0 -195 187q0 86 75 169zM227 532q23 22 54 22q32 0 54 -22t22 -54q0 -31 -22 -54
q-22 -22 -54 -22q-31 0 -54 22q-22 23 -22 54q0 32 22 54z" />
    <glyph glyph-name="grave" unicode="`" 
d="M32 678q-25 23 -25 46q0 19 14 32q13 11 30 11q23 0 39 -16l84 -85q15 -15 15 -33q0 -44 -42 -44q-18 0 -36 16z" />
    <glyph glyph-name="acute" unicode="&#xb4;" 
d="M150 751q16 16 39 16q17 0 30 -11q14 -13 14 -32q0 -23 -25 -46l-79 -73q-18 -16 -36 -16q-42 0 -42 44q0 18 15 33z" />
    <glyph glyph-name="circumflex" unicode="&#x2c6;" 
d="M47 726q27 41 73 41t73 -41l43 -65q12 -17 12 -31q0 -41 -44 -41q-22 0 -36 22l-48 80l-48 -80q-14 -22 -36 -22q-44 0 -44 41q0 14 12 31z" />
    <glyph glyph-name="tilde" unicode="&#x2dc;" 
d="M-13 692q32 28 66 28q29 0 69 -13q41 -13 48 -13q16 0 38 18q23 17 37 17q40 0 40 -36q0 -32 -30 -60q-30 -30 -67 -30q-10 0 -63 13q-54 13 -60 13q-13 0 -33 -17t-34 -17q-43 0 -43 40q0 29 32 57z" />
    <glyph glyph-name="macron" unicode="&#xaf;" 
d="M239 707q49 0 49 -43t-49 -43h-238q-49 0 -49 43t49 43h238z" />
    <glyph glyph-name="breve" unicode="&#x2d8;" 
d="M22 767q23 0 37 -29q22 -46 61 -46t61 46q14 29 37 29q37 0 37 -39q0 -34 -32 -70q-40 -47 -103 -47t-103 47q-32 36 -32 70q0 39 37 39z" />
    <glyph glyph-name="dotaccent" unicode="&#x2d9;" 
d="M73 713q19 20 47 20t47 -20q20 -19 20 -47t-20 -47q-19 -20 -47 -20t-47 20q-20 19 -20 47t20 47z" />
    <glyph glyph-name="dieresis" unicode="&#xa8;" 
d="M-20 713q19 20 47 20t47 -20q20 -19 20 -47t-20 -47q-19 -20 -47 -20t-47 20q-20 19 -20 47t20 47zM166 713q19 20 47 20t47 -20q20 -19 20 -47t-20 -47q-19 -20 -47 -20t-47 20q-20 19 -20 47t20 47z" />
    <glyph glyph-name="ring" unicode="&#x2da;" 
d="M45 770q31 31 75 31t75 -31t31 -75t-31 -75t-75 -31t-75 31t-31 75t31 75zM86 661q14 -14 34 -14t34 14t14 34t-14 34t-34 14t-34 -14t-14 -34t14 -34z" />
    <glyph glyph-name="cedilla" unicode="&#xb8;" 
d="M115 -56h13q87 0 87 -70q0 -40 -35 -66q-33 -24 -83 -24q-78 0 -78 38q0 25 20 25q9 0 27 -5q17 -6 24 -6q44 0 44 36q0 32 -34 32l-31 -3q-19 0 -19 16q0 7 11 23l38 60h52z" />
    <glyph glyph-name="hungarumlaut" unicode="&#x2dd;" 
d="M52 751q16 16 39 16q17 0 30 -11q14 -13 14 -32q0 -23 -25 -46l-79 -73q-18 -16 -36 -16q-42 0 -42 44q0 18 15 33zM248 751q16 16 39 16q17 0 30 -11q14 -13 14 -32q0 -23 -25 -46l-79 -73q-18 -16 -36 -16q-42 0 -42 44q0 18 15 33z" />
    <glyph glyph-name="ogonek" unicode="&#x2db;" 
d="M195 0q-63 -47 -63 -110q0 -46 37 -46q11 0 25 6q15 5 19 5q22 0 22 -28q0 -43 -84 -43q-100 0 -100 89q0 86 94 127h50z" />
    <glyph glyph-name="caron" unicode="&#x2c7;" 
d="M4 695q-12 17 -12 31q0 41 44 41q22 0 36 -22l48 -80l48 80q14 22 36 22q44 0 44 -41q0 -14 -12 -31l-43 -65q-27 -41 -73 -41t-73 41z" />
    <glyph glyph-name="emdash" unicode="&#x2014;" horiz-adv-x="1000" 
d="M72 226q-62 0 -62 57t62 57h856q62 0 62 -57t-62 -57h-856z" />
    <glyph glyph-name="AE" unicode="&#xc6;" horiz-adv-x="778" 
d="M475 434h187q70 0 70 -60t-70 -60h-187v-194h199q70 0 70 -60t-70 -60h-261q-72 0 -72 72v108h-164l-33 -121q-20 -72 -71 -72q-31 0 -50 19q-17 17 -17 39q0 10 7 36l167 585q15 54 72 54h422q70 0 70 -60t-70 -60h-199v-166zM206 286h135v320h-48z" />
    <glyph glyph-name="ordfeminine" unicode="&#xaa;" horiz-adv-x="289" 
d="M273 458q0 -12 2 -29l2 -20q0 -29 -39 -29q-58 0 -57 42v-1h-2q-21 -41 -85 -41q-82 0 -82 87q0 75 56 98l84 34q25 11 25 33q0 30 -30 30q-34 0 -39 -39q-3 -23 -55 -23q-41 0 -41 30q0 90 126 90q84 0 114 -28q21 -20 21 -68v-166zM177 555l-27 -16q-42 -24 -42 -59
q0 -36 28 -36q41 0 41 57v54z" />
    <glyph glyph-name="Lslash" unicode="&#x141;" horiz-adv-x="481" 
d="M56 232q-13 -9 -31 -9q-47 0 -47 47q0 29 31 52l47 34v308q0 31 20 50q19 19 47 19t47 -19q20 -19 20 -50v-210l70 51q21 16 44 16q47 0 47 -47q0 -29 -31 -52l-130 -95v-207h201q70 0 70 -60t-70 -60h-263q-72 0 -72 72v160z" />
    <glyph glyph-name="Oslash" unicode="&#xd8;" horiz-adv-x="520" 
d="M180 274h2l153 262q-11 95 -75 95q-42 0 -60 -36q-20 -42 -20 -153v-168zM340 447h-2l-153 -265q7 -53 24 -73q16 -20 51 -20q44 0 60 35q20 42 20 166v157zM40 442q0 179 68 247q49 48 152 48q109 0 158 -54l19 32q18 31 34 31q24 0 24 -22q0 -10 -12 -29l-35 -60
q32 -73 32 -193v-152q0 -186 -63 -255q-48 -52 -157 -52q-111 0 -158 54l-14 -25q-21 -38 -40 -38q-23 0 -23 21q0 10 15 36l32 55q-32 61 -32 204v152z" />
    <glyph glyph-name="OE" unicode="&#x152;" horiz-adv-x="796" 
d="M40 442q0 179 68 247q49 48 152 48q80 0 118 -39v-2h2q9 24 46 24h266q70 0 70 -60t-70 -60h-218v-166h203q70 0 70 -60t-70 -60h-203v-194h218q70 0 70 -60t-70 -60h-243q-59 0 -71 21q-37 -38 -118 -38q-109 0 -156 52q-64 69 -64 255v152zM180 290q0 -124 20 -166
q16 -35 60 -35t60 35q20 42 20 166v152q0 111 -20 153q-18 36 -60 36t-60 -36q-20 -42 -20 -153v-152z" />
    <glyph glyph-name="ordmasculine" unicode="&#xba;" horiz-adv-x="289" 
d="M181 581q0 44 -8 60q-8 15 -29 15t-28 -15q-8 -15 -8 -60v-63q0 -44 8 -59q7 -15 28 -15t29 15t8 59v63zM277 506q0 -126 -133 -126q-132 0 -132 126v88q0 126 132 126q133 0 133 -126v-88z" />
    <glyph glyph-name="ae" unicode="&#xe6;" horiz-adv-x="648" 
d="M387 254v-55q0 -58 9 -82q12 -34 46 -34q20 0 34 17q13 17 14 39q2 65 60 65q62 0 62 -60q0 -73 -46 -115q-45 -42 -120 -42q-106 0 -151 71q-47 -71 -131 -71q-126 0 -126 145q0 117 87 163l109 57q39 20 39 57q0 54 -47 54q-53 0 -60 -64q-5 -39 -58 -39q-64 0 -64 50
q0 68 50 107q46 37 120 37q80 0 120 -40q47 40 112 40q93 0 133 -53q37 -50 37 -160q0 -44 -11 -62q-15 -25 -57 -25h-161zM256 112q17 28 17 72v96l-43 -30q-64 -45 -64 -103q0 -64 43 -64q29 0 47 29zM494 340v45q0 73 -54 73q-53 0 -53 -73v-45h107z" />
    <glyph glyph-name="dotlessi" unicode="&#x131;" 
d="M59 481q0 73 61 73t61 -73v-421q0 -73 -61 -73t-61 73v421z" />
    <glyph glyph-name="lslash" unicode="&#x142;" 
d="M59 264q-15 -10 -32 -10q-20 0 -33 13t-13 30q0 25 26 50l52 42v271q0 73 61 73t61 -73v-175q13 10 32 10q20 0 34 -13q12 -13 12 -30q0 -25 -26 -50l-52 -41v-301q0 -73 -61 -73t-61 73v204z" />
    <glyph glyph-name="oslash" unicode="&#xf8;" horiz-adv-x="444" 
d="M274 399q-10 59 -52 59q-29 0 -41 -24q-15 -28 -15 -98v-114h2zM68 61q-30 49 -30 136v147q0 210 184 210q79 0 124 -37l18 30q11 18 28 18q18 0 18 -18q0 -10 -10 -27l-24 -40q30 -49 30 -136v-147q0 -210 -184 -210q-81 0 -124 38l-18 -30q-13 -20 -25 -20
q-21 0 -21 19q0 11 10 27zM170 142q9 -59 52 -59q31 0 43 25q13 26 13 99v113h-2z" />
    <glyph glyph-name="oe" unicode="&#x153;" horiz-adv-x="667" 
d="M174 226q0 -74 9 -104q12 -39 47 -39t46 35q9 26 9 96v113q0 70 -9 96q-11 35 -46 35t-47 -39q-9 -30 -9 -104v-89zM513 340v45q0 73 -53 73t-53 -73v-45h106zM46 347q0 207 178 207q72 0 127 -42v1q52 41 114 41q93 0 133 -53q37 -50 37 -160q0 -44 -11 -62
q-15 -25 -57 -25h-160v-55q0 -58 9 -82q12 -34 46 -34q19 0 33 17q13 17 14 39q2 65 60 65q62 0 62 -60q0 -73 -46 -115q-45 -42 -120 -42q-83 0 -129 43q-39 -43 -115 -43q-97 0 -138 60q-37 53 -37 166v134z" />
    <glyph glyph-name="germandbls" unicode="&#xdf;" horiz-adv-x="481" 
d="M54 570q0 163 187 163q84 0 131 -45q45 -43 45 -121q0 -102 -71 -131v-2q83 -23 83 -166q0 -131 -23 -188q-33 -86 -128 -86q-62 0 -62 51q0 38 47 54q23 8 31 38q7 28 7 107q0 118 -48 135q-35 12 -35 49q0 36 36 53q35 17 35 67q0 84 -53 84q-60 0 -60 -78v-494
q0 -73 -61 -73t-61 73v510z" />
    <glyph glyph-name="divide" unicode="&#xf7;" horiz-adv-x="600" 
d="M513 336q31 0 51 -16q19 -15 19 -37t-19 -37q-20 -16 -51 -16h-426q-31 0 -51 16q-19 15 -19 37t19 37q20 16 51 16h426zM246 549q23 22 54 22q32 0 54 -22t22 -54q0 -31 -22 -54q-22 -22 -54 -22q-31 0 -54 22q-22 23 -22 54q0 32 22 54zM246 125q23 22 54 22
q32 0 54 -22t22 -54q0 -31 -22 -54q-22 -22 -54 -22q-31 0 -54 22q-22 23 -22 54q0 32 22 54z" />
    <glyph glyph-name="threequarters" unicode="&#xbe;" horiz-adv-x="740" 
d="M582 315h-2l-86 -171h88v171zM582 68h-115q-51 0 -51 39q0 23 13 48l130 248q13 24 60 24q54 0 54 -38v-245h15q36 0 36 -38t-36 -38h-15v-37q0 -44 -46 -44q-45 0 -45 44v37zM504 719q12 26 43 26q35 0 35 -31q0 -15 -6 -29l-303 -697q-12 -26 -43 -26q-35 0 -35 31
q0 16 6 29zM36 322q-25 28 -25 68q0 48 46 48q47 0 50 -42q3 -52 48 -52q47 0 47 68q0 41 -14 57q-11 13 -40 15q-45 4 -45 31q0 26 41 33q48 8 48 62q0 46 -40 46q-35 0 -42 -37q-6 -33 -48 -33q-43 0 -43 36q0 98 131 98q143 0 143 -111q0 -72 -56 -88v-2q66 -21 66 -106
q0 -133 -150 -133q-80 0 -117 42z" />
    <glyph glyph-name="onequarter" unicode="&#xbc;" horiz-adv-x="740" 
d="M582 315h-2l-86 -171h88v171zM582 68h-115q-51 0 -51 39q0 23 13 48l130 248q13 24 60 24q54 0 54 -38v-245h15q36 0 36 -38t-36 -38h-15v-37q0 -44 -46 -44q-45 0 -45 44v37zM472 719q12 26 43 26q35 0 35 -31q0 -15 -6 -29l-303 -697q-12 -26 -43 -26q-35 0 -35 31
q0 16 6 29zM35 580q-37 0 -37 28q0 27 27 31q65 9 87 50q18 31 49 31q35 0 35 -33v-365q0 -42 -51 -42q-50 0 -50 42v258h-60z" />
    <glyph glyph-name="uni00B9" unicode="&#xb9;" 
d="M42 580q-37 0 -37 28q0 27 27 31q65 9 87 50q18 31 49 31q35 0 35 -33v-365q0 -42 -51 -42q-50 0 -50 42v258h-60z" />
    <glyph glyph-name="multiply" unicode="&#xd7;" horiz-adv-x="600" 
d="M87 420q-25 25 -25 57q0 16 14 30t32 14q29 0 55 -26l137 -137l137 137q26 26 55 26q18 0 32 -14t14 -30q0 -32 -25 -57l-138 -137l138 -137q25 -25 25 -57q0 -16 -14 -30t-32 -14q-29 0 -55 26l-137 137l-137 -137q-26 -26 -55 -26q-18 0 -32 14t-14 30q0 32 25 57
l138 137z" />
    <glyph glyph-name="registered" unicode="&#xae;" horiz-adv-x="800" 
d="M251 522q0 45 46 45h126q73 0 107 -25q39 -29 39 -96q0 -51 -28 -84q-24 -27 -55 -30l69 -95q8 -10 8 -26q0 -42 -47 -42q-27 0 -51 34l-93 129h-30v-117q0 -46 -45 -46q-46 0 -46 46v307zM342 402h73q53 0 53 47q0 48 -53 48h-73v-95zM134 627q110 110 266 110t267 -110
q110 -111 110 -267t-110 -266q-111 -111 -267 -111t-266 111q-111 110 -111 266t111 267zM211 164q74 -75 189 -75t189 75q74 76 74 196t-74 196q-74 75 -189 75t-189 -75q-74 -76 -74 -196t74 -196z" />
    <glyph glyph-name="Thorn" unicode="&#xde;" horiz-adv-x="500" 
d="M56 664q0 31 20 50q19 19 47 19t47 -19q20 -19 20 -50v-60h105q182 0 182 -203q0 -91 -42 -148q-45 -63 -129 -63h-116v-134q0 -31 -20 -50q-19 -19 -47 -19t-47 19q-20 19 -20 50v608zM190 291h60q87 0 87 104q0 108 -80 108h-67v-212z" />
    <glyph glyph-name="brokenbar" unicode="&#xa6;" horiz-adv-x="222" 
d="M54 223q0 73 57 73t57 -73v-167q0 -73 -57 -73t-57 73v167zM54 664q0 73 57 73t57 -73v-167q0 -73 -57 -73t-57 73v167z" />
    <glyph glyph-name="Eth" unicode="&#xd0;" horiz-adv-x="537" 
d="M190 427h60q39 0 39 -51q0 -50 -39 -50h-60v-220h62q56 0 79 46q26 52 26 185v58q0 123 -19 169q-22 50 -82 50h-66v-187zM56 326h-34q-39 0 -39 50q0 51 39 51h34v221q0 72 72 72h175q103 0 149 -76q45 -74 45 -239v-93q0 -312 -200 -312h-169q-72 0 -72 72v254z" />
    <glyph glyph-name="onehalf" unicode="&#xbd;" horiz-adv-x="740" 
d="M468 719q12 26 43 26q35 0 35 -31q0 -15 -6 -29l-303 -697q-12 -26 -43 -26q-35 0 -35 31q0 16 6 29zM35 580q-37 0 -37 28q0 27 27 31q65 9 87 50q18 31 49 31q35 0 35 -33v-365q0 -42 -51 -42q-50 0 -50 42v258h-60zM483 0q-39 0 -39 34q0 76 88 159l30 28q57 52 57 92
q0 50 -38 50q-35 0 -40 -59q-3 -34 -46 -34q-45 0 -45 48q0 53 33 84q34 31 96 31q141 0 141 -108q0 -64 -57 -117l-54 -49q-48 -44 -60 -83h128q47 0 47 -38t-47 -38h-194z" />
    <glyph glyph-name="minus" unicode="&#x2212;" horiz-adv-x="600" 
d="M513 336q31 0 51 -16q19 -15 19 -37t-19 -37q-20 -16 -51 -16h-426q-31 0 -51 16q-19 15 -19 37t19 37q20 16 51 16h426z" />
    <glyph glyph-name="ccedilla" unicode="&#xe7;" horiz-adv-x="426" 
d="M193 -11q-94 8 -127 75q-24 48 -24 157v99q0 117 28 166q40 68 151 68q92 0 137 -56q32 -40 32 -92q0 -69 -60 -69q-62 0 -62 69q0 52 -46 52q-33 0 -44 -36q-8 -26 -8 -91v-120q0 -69 11 -98q12 -30 41 -30q45 0 46 55q4 88 62 88q60 0 60 -71q0 -55 -26 -97
q-38 -61 -119 -68l-29 -46h13q87 0 87 -70q0 -40 -35 -66q-33 -24 -83 -24q-78 0 -78 38q0 25 20 25q9 0 27 -5q17 -6 24 -6q44 0 44 36q0 32 -34 32l-31 -3q-19 0 -19 16q0 7 11 23z" />
    <glyph glyph-name="eth" unicode="&#xf0;" horiz-adv-x="444" 
d="M166 184q0 -66 12 -89q11 -22 44 -22t44 22q12 23 12 89v111q0 67 -12 89q-11 22 -44 22t-44 -22q-12 -22 -12 -89v-111zM38 305q0 187 172 187q45 0 71 -35l2 2q-9 72 -46 138l-47 -25q-28 -14 -47 -14q-35 0 -35 30q0 29 34 46l38 19q-86 78 -86 64q0 41 47 41
q69 0 131 -57l42 22q28 14 47 14q35 0 35 -30q0 -29 -34 -46l-37 -20q81 -107 81 -262v-205q0 -187 -184 -187t-184 187v131z" />
    <glyph glyph-name="plusminus" unicode="&#xb1;" horiz-adv-x="600" 
d="M247 496q0 31 15 50q15 20 38 20t38 -20q15 -19 15 -50v-79h160q31 0 51 -16q19 -15 19 -37t-19 -37q-20 -16 -51 -16h-160v-79q0 -31 -15 -50q-15 -20 -38 -20t-38 20q-15 19 -15 50v79h-160q-31 0 -51 16q-19 15 -19 37t19 37q20 16 51 16h160v79zM513 106q31 0 51 -16
q19 -15 19 -37t-19 -37q-20 -16 -51 -16h-426q-31 0 -51 16q-19 15 -19 37t19 37q20 16 51 16h426z" />
    <glyph glyph-name="Ccedilla" unicode="&#xc7;" horiz-adv-x="500" 
d="M229 -17q-122 11 -163 112q-26 63 -26 201v114q0 185 55 259q51 68 176 68q96 0 151 -53q51 -49 51 -127q0 -80 -68 -80q-38 0 -52 18q-14 16 -20 63q-10 73 -62 73q-50 0 -68 -40q-23 -51 -23 -202v-40q0 -147 12 -194q18 -66 75 -66q26 0 46 21q20 22 21 52q3 63 17 85
q14 25 55 25q68 0 68 -79q0 -197 -193 -210l-26 -39h13q87 0 87 -70q0 -40 -35 -66q-33 -24 -83 -24q-78 0 -78 38q0 25 20 25q9 0 27 -5q17 -6 24 -6q44 0 44 36q0 32 -34 32l-31 -3q-19 0 -19 16q0 7 11 23z" />
    <glyph glyph-name="thorn" unicode="&#xfe;" horiz-adv-x="463" 
d="M181 215q0 -132 61 -132q31 0 42 37q9 30 9 105v76q0 89 -11 121q-10 31 -41 31q-60 0 -60 -131v-107zM59 660q0 73 61 73t61 -73v-179h2q33 73 108 73t106 -64q24 -49 24 -147v-145q0 -98 -24 -147q-31 -64 -106 -64t-108 61l-2 2v-184q0 -73 -61 -73t-61 73v794z" />
    <glyph glyph-name="copyright" unicode="&#xa9;" horiz-adv-x="800" 
d="M269 519q55 62 145 62q73 0 122 -41q44 -37 44 -81q0 -49 -42 -49q-35 0 -53 43q-14 37 -72 37q-42 0 -66 -33q-25 -34 -25 -92q0 -57 25 -92q25 -36 68 -36q51 0 71 39q23 45 56 45q42 0 42 -44q0 -37 -44 -80q-52 -51 -124 -51q-89 0 -145 63q-55 61 -55 154
q0 95 53 156zM134 627q110 110 266 110t267 -110q110 -111 110 -267t-110 -266q-111 -111 -267 -111t-266 111q-111 110 -111 266t111 267zM211 164q74 -75 189 -75t189 75q74 76 74 196t-74 196q-74 75 -189 75t-189 -75q-74 -76 -74 -196t74 -196z" />
    <glyph glyph-name="logicalnot" unicode="&#xac;" horiz-adv-x="600" 
d="M583 182q0 -31 -16 -51q-15 -19 -37 -19t-37 19q-16 20 -16 51v166h-390q-31 0 -51 16q-19 15 -19 37t19 37q20 16 51 16h426q31 0 51 -16q19 -16 19 -41v-215z" />
    <glyph glyph-name="uni00B2" unicode="&#xb2;" horiz-adv-x="312" 
d="M55 287q-39 0 -39 34q0 76 88 159l30 28q57 52 57 92q0 50 -38 50q-35 0 -40 -59q-3 -34 -46 -34q-45 0 -45 48q0 53 33 84q34 31 96 31q141 0 141 -108q0 -64 -57 -117l-54 -49q-48 -44 -60 -83h128q47 0 47 -38t-47 -38h-194z" />
    <glyph glyph-name="uni00B3" unicode="&#xb3;" horiz-adv-x="316" 
d="M37 322q-25 28 -25 68q0 48 46 48q47 0 50 -42q3 -52 48 -52q47 0 47 68q0 41 -14 57q-11 13 -40 15q-45 4 -45 31q0 26 41 33q48 8 48 62q0 46 -40 46q-35 0 -42 -37q-6 -33 -48 -33q-43 0 -43 36q0 98 131 98q143 0 143 -111q0 -72 -56 -88v-2q66 -21 66 -106
q0 -133 -150 -133q-80 0 -117 42z" />
    <glyph glyph-name="trademark" unicode="&#x2122;" horiz-adv-x="1000" 
d="M142 629h-66q-49 0 -49 46q0 45 49 45h247q48 0 48 -45q0 -46 -48 -46h-67v-265q0 -35 -23 -52q-16 -13 -34 -13t-34 13q-23 17 -23 52v265zM828 571h-2l-91 -219q-21 -53 -57 -53t-57 53l-91 219h-2v-207q0 -29 -16 -47q-15 -18 -37 -18t-37 18q-16 18 -16 47v272
q0 90 84 90q76 0 107 -77l65 -167l65 167q31 77 107 77q84 0 84 -90v-272q0 -29 -16 -47q-15 -18 -37 -18t-37 18q-16 18 -16 47v207z" />
    <glyph glyph-name="degree" unicode="&#xb0;" horiz-adv-x="400" 
d="M99 679q41 41 101 41t102 -41q41 -42 41 -102t-41 -101q-42 -42 -102 -42t-101 42q-42 41 -42 101t42 102zM153 530q19 -20 47 -20t47 20q20 19 20 47t-20 47q-19 20 -47 20t-47 -20q-20 -19 -20 -47t20 -47z" />
    <glyph glyph-name="uni00B5" unicode="&#xb5;" horiz-adv-x="463" 
d="M54 481q0 73 61 73t61 -73v-331q0 -57 47 -57q64 0 64 97v291q0 73 61 73t61 -73v-421q0 -73 -61 -73t-61 70h-2q-12 -28 -36 -47q-28 -23 -55 -23q-13 0 -16 9h-2v-130q0 -73 -61 -73t-61 73v615z" />
    <glyph glyph-name="Aacute" unicode="&#xc1;" horiz-adv-x="519" 
d="M173 180l-27 -130q-13 -63 -70 -63q-63 0 -63 58q0 23 8 55l128 539q13 56 33 74q22 20 77 20q51 0 74 -20q23 -19 36 -74l127 -535q10 -44 10 -55q0 -62 -66 -62q-37 0 -54 18q-17 19 -27 69l-21 106h-165zM317 286l-59 299h-2l-61 -299h122zM296 930q16 16 39 16
q17 0 30 -11q14 -13 14 -32q0 -23 -25 -46l-79 -73q-18 -16 -36 -16q-42 0 -42 44q0 18 15 33z" />
    <glyph glyph-name="Acircumflex" unicode="&#xc2;" horiz-adv-x="519" 
d="M173 180l-27 -130q-13 -63 -70 -63q-63 0 -63 58q0 23 8 55l128 539q13 56 33 74q22 20 77 20q51 0 74 -20q23 -19 36 -74l127 -535q10 -44 10 -55q0 -62 -66 -62q-37 0 -54 18q-17 19 -27 69l-21 106h-165zM317 286l-59 299h-2l-61 -299h122zM193 905q27 41 73 41
t73 -41l43 -65q12 -17 12 -31q0 -41 -44 -41q-22 0 -36 22l-48 80l-48 -80q-14 -22 -36 -22q-44 0 -44 41q0 14 12 31z" />
    <glyph glyph-name="Adieresis" unicode="&#xc4;" horiz-adv-x="519" 
d="M173 180l-27 -130q-13 -63 -70 -63q-63 0 -63 58q0 23 8 55l128 539q13 56 33 74q22 20 77 20q51 0 74 -20q23 -19 36 -74l127 -535q10 -44 10 -55q0 -62 -66 -62q-37 0 -54 18q-17 19 -27 69l-21 106h-165zM317 286l-59 299h-2l-61 -299h122zM126 892q19 20 47 20
t47 -20q20 -19 20 -47t-20 -47q-19 -20 -47 -20t-47 20q-20 19 -20 47t20 47zM312 892q19 20 47 20t47 -20q20 -19 20 -47t-20 -47q-19 -20 -47 -20t-47 20q-20 19 -20 47t20 47z" />
    <glyph glyph-name="Agrave" unicode="&#xc0;" horiz-adv-x="519" 
d="M173 180l-27 -130q-13 -63 -70 -63q-63 0 -63 58q0 23 8 55l128 539q13 56 33 74q22 20 77 20q51 0 74 -20q23 -19 36 -74l127 -535q10 -44 10 -55q0 -62 -66 -62q-37 0 -54 18q-17 19 -27 69l-21 106h-165zM317 286l-59 299h-2l-61 -299h122zM178 857q-25 23 -25 46
q0 19 14 32q13 11 30 11q23 0 39 -16l84 -85q15 -15 15 -33q0 -44 -42 -44q-18 0 -36 16z" />
    <glyph glyph-name="Aring" unicode="&#xc5;" horiz-adv-x="519" 
d="M173 180l-27 -130q-13 -63 -70 -63q-63 0 -63 58q0 23 8 55l128 539q13 56 33 74q22 20 77 20q51 0 74 -20q23 -19 36 -74l127 -535q10 -44 10 -55q0 -62 -66 -62q-37 0 -54 18q-17 19 -27 69l-21 106h-165zM317 286l-59 299h-2l-61 -299h122zM185 934q31 31 75 31
t75 -31t31 -75t-31 -75t-75 -31t-75 31t-31 75t31 75zM226 825q14 -14 34 -14t34 14t14 34t-14 34t-34 14t-34 -14t-14 -34t14 -34z" />
    <glyph glyph-name="Atilde" unicode="&#xc3;" horiz-adv-x="519" 
d="M173 180l-27 -130q-13 -63 -70 -63q-63 0 -63 58q0 23 8 55l128 539q13 56 33 74q22 20 77 20q51 0 74 -20q23 -19 36 -74l127 -535q10 -44 10 -55q0 -62 -66 -62q-37 0 -54 18q-17 19 -27 69l-21 106h-165zM317 286l-59 299h-2l-61 -299h122zM133 871q32 28 66 28
q29 0 69 -13q41 -13 48 -13q16 0 38 18q23 17 37 17q40 0 40 -36q0 -32 -30 -60q-30 -30 -67 -30q-10 0 -63 13q-54 13 -60 13q-13 0 -33 -17t-34 -17q-43 0 -43 40q0 29 32 57z" />
    <glyph glyph-name="Eacute" unicode="&#xc9;" horiz-adv-x="500" 
d="M190 120h206q70 0 70 -60t-70 -60h-268q-72 0 -72 72v576q0 72 72 72h261q70 0 70 -60t-70 -60h-199v-166h186q70 0 70 -60t-70 -60h-186v-194zM292 930q16 16 39 16q17 0 30 -11q14 -13 14 -32q0 -23 -25 -46l-79 -73q-18 -16 -36 -16q-42 0 -42 44q0 18 15 33z" />
    <glyph glyph-name="Ecircumflex" unicode="&#xca;" horiz-adv-x="500" 
d="M190 120h206q70 0 70 -60t-70 -60h-268q-72 0 -72 72v576q0 72 72 72h261q70 0 70 -60t-70 -60h-199v-166h186q70 0 70 -60t-70 -60h-186v-194zM189 905q27 41 73 41t73 -41l43 -65q12 -17 12 -31q0 -41 -44 -41q-22 0 -36 22l-48 80l-48 -80q-14 -22 -36 -22
q-44 0 -44 41q0 14 12 31z" />
    <glyph glyph-name="Edieresis" unicode="&#xcb;" horiz-adv-x="500" 
d="M190 120h206q70 0 70 -60t-70 -60h-268q-72 0 -72 72v576q0 72 72 72h261q70 0 70 -60t-70 -60h-199v-166h186q70 0 70 -60t-70 -60h-186v-194zM122 892q19 20 47 20t47 -20q20 -19 20 -47t-20 -47q-19 -20 -47 -20t-47 20q-20 19 -20 47t20 47zM308 892q19 20 47 20
t47 -20q20 -19 20 -47t-20 -47q-19 -20 -47 -20t-47 20q-20 19 -20 47t20 47z" />
    <glyph glyph-name="Egrave" unicode="&#xc8;" horiz-adv-x="500" 
d="M190 120h206q70 0 70 -60t-70 -60h-268q-72 0 -72 72v576q0 72 72 72h261q70 0 70 -60t-70 -60h-199v-166h186q70 0 70 -60t-70 -60h-186v-194zM174 857q-25 23 -25 46q0 19 14 32q13 11 30 11q23 0 39 -16l84 -85q15 -15 15 -33q0 -44 -42 -44q-18 0 -36 16z" />
    <glyph glyph-name="Iacute" unicode="&#xcd;" horiz-adv-x="258" 
d="M62 664q0 31 20 50q19 19 47 19t47 -19q20 -19 20 -50v-608q0 -31 -20 -50q-19 -19 -47 -19t-47 19q-20 19 -20 50v608zM165 930q16 16 39 16q17 0 30 -11q14 -13 14 -32q0 -23 -25 -46l-79 -73q-18 -16 -36 -16q-42 0 -42 44q0 18 15 33z" />
    <glyph glyph-name="Icircumflex" unicode="&#xce;" horiz-adv-x="258" 
d="M123 664q0 31 20 50q19 19 47 19t47 -19q20 -19 20 -50v-608q0 -31 -20 -50q-19 -19 -47 -19t-47 19q-20 19 -20 50v608zM117 905q27 41 73 41t73 -41l43 -65q12 -17 12 -31q0 -41 -44 -41q-22 0 -36 22l-48 80l-48 -80q-14 -22 -36 -22q-44 0 -44 41q0 14 12 31z" />
    <glyph glyph-name="Idieresis" unicode="&#xcf;" horiz-adv-x="258" 
d="M155 664q0 31 20 50q19 19 47 19t47 -19q20 -19 20 -50v-608q0 -31 -20 -50q-19 -19 -47 -19t-47 19q-20 19 -20 50v608zM82 892q19 20 47 20t47 -20q20 -19 20 -47t-20 -47q-19 -20 -47 -20t-47 20q-20 19 -20 47t20 47zM268 892q19 20 47 20t47 -20q20 -19 20 -47
t-20 -47q-19 -20 -47 -20t-47 20q-20 19 -20 47t20 47z" />
    <glyph glyph-name="Igrave" unicode="&#xcc;" horiz-adv-x="258" 
d="M102 664q0 31 20 50q19 19 47 19t47 -19q20 -19 20 -50v-608q0 -31 -20 -50q-19 -19 -47 -19t-47 19q-20 19 -20 50v608zM87 857q-25 23 -25 46q0 19 14 32q13 11 30 11q23 0 39 -16l84 -85q15 -15 15 -33q0 -44 -42 -44q-18 0 -36 16z" />
    <glyph glyph-name="Ntilde" unicode="&#xd1;" horiz-adv-x="574" 
d="M56 664q0 69 74 69q65 0 93 -68l159 -394h2v393q0 31 20 50q19 19 47 19t47 -19q20 -19 20 -50v-602q0 -35 -20 -55q-19 -20 -47 -20q-42 0 -62 13q-22 14 -38 55l-159 400h-2v-399q0 -31 -20 -50q-19 -19 -47 -19t-47 19q-20 19 -20 50v608zM154 871q32 28 66 28
q29 0 69 -13q41 -13 48 -13q16 0 38 18q23 17 37 17q40 0 40 -36q0 -32 -30 -60q-30 -30 -67 -30q-10 0 -63 13q-54 13 -60 13q-13 0 -33 -17t-34 -17q-43 0 -43 40q0 29 32 57z" />
    <glyph glyph-name="Oacute" unicode="&#xd3;" horiz-adv-x="520" 
d="M40 442q0 179 68 247q49 48 152 48t152 -48q68 -68 68 -247v-152q0 -186 -63 -255q-48 -52 -157 -52t-156 52q-64 69 -64 255v152zM180 290q0 -124 20 -166q16 -35 60 -35t60 35q20 42 20 166v152q0 111 -20 153q-18 36 -60 36t-60 -36q-20 -42 -20 -153v-152zM290 930
q16 16 39 16q17 0 30 -11q14 -13 14 -32q0 -23 -25 -46l-79 -73q-18 -16 -36 -16q-42 0 -42 44q0 18 15 33z" />
    <glyph glyph-name="Ocircumflex" unicode="&#xd4;" horiz-adv-x="520" 
d="M40 442q0 179 68 247q49 48 152 48t152 -48q68 -68 68 -247v-152q0 -186 -63 -255q-48 -52 -157 -52t-156 52q-64 69 -64 255v152zM180 290q0 -124 20 -166q16 -35 60 -35t60 35q20 42 20 166v152q0 111 -20 153q-18 36 -60 36t-60 -36q-20 -42 -20 -153v-152zM187 905
q27 41 73 41t73 -41l43 -65q12 -17 12 -31q0 -41 -44 -41q-22 0 -36 22l-48 80l-48 -80q-14 -22 -36 -22q-44 0 -44 41q0 14 12 31z" />
    <glyph glyph-name="Odieresis" unicode="&#xd6;" horiz-adv-x="520" 
d="M40 442q0 179 68 247q49 48 152 48t152 -48q68 -68 68 -247v-152q0 -186 -63 -255q-48 -52 -157 -52t-156 52q-64 69 -64 255v152zM180 290q0 -124 20 -166q16 -35 60 -35t60 35q20 42 20 166v152q0 111 -20 153q-18 36 -60 36t-60 -36q-20 -42 -20 -153v-152zM120 892
q19 20 47 20t47 -20q20 -19 20 -47t-20 -47q-19 -20 -47 -20t-47 20q-20 19 -20 47t20 47zM306 892q19 20 47 20t47 -20q20 -19 20 -47t-20 -47q-19 -20 -47 -20t-47 20q-20 19 -20 47t20 47z" />
    <glyph glyph-name="Ograve" unicode="&#xd2;" horiz-adv-x="520" 
d="M40 442q0 179 68 247q49 48 152 48t152 -48q68 -68 68 -247v-152q0 -186 -63 -255q-48 -52 -157 -52t-156 52q-64 69 -64 255v152zM180 290q0 -124 20 -166q16 -35 60 -35t60 35q20 42 20 166v152q0 111 -20 153q-18 36 -60 36t-60 -36q-20 -42 -20 -153v-152zM172 857
q-25 23 -25 46q0 19 14 32q13 11 30 11q23 0 39 -16l84 -85q15 -15 15 -33q0 -44 -42 -44q-18 0 -36 16z" />
    <glyph glyph-name="Otilde" unicode="&#xd5;" horiz-adv-x="520" 
d="M40 442q0 179 68 247q49 48 152 48t152 -48q68 -68 68 -247v-152q0 -186 -63 -255q-48 -52 -157 -52t-156 52q-64 69 -64 255v152zM180 290q0 -124 20 -166q16 -35 60 -35t60 35q20 42 20 166v152q0 111 -20 153q-18 36 -60 36t-60 -36q-20 -42 -20 -153v-152zM127 871
q32 28 66 28q29 0 69 -13q41 -13 48 -13q16 0 38 18q23 17 37 17q40 0 40 -36q0 -32 -30 -60q-30 -30 -67 -30q-10 0 -63 13q-54 13 -60 13q-13 0 -33 -17t-34 -17q-43 0 -43 40q0 29 32 57z" />
    <glyph glyph-name="Scaron" unicode="&#x160;" horiz-adv-x="500" 
d="M132 371q-91 65 -91 178q0 91 63 142q58 46 149 46q102 0 156 -63q43 -50 43 -118t-66 -68q-38 0 -52 19q-11 14 -16 57q-8 67 -72 67q-31 0 -51 -18q-20 -19 -20 -51q0 -59 72 -107l99 -65q117 -77 117 -205q0 -95 -56 -147q-59 -55 -172 -55t-165 82q-33 52 -33 109
q0 91 68 91q61 0 66 -87q5 -89 80 -89q78 0 78 84q0 58 -68 107zM134 874q-12 17 -12 31q0 41 44 41q22 0 36 -22l48 -80l48 80q14 22 36 22q44 0 44 -41q0 -14 -12 -31l-43 -65q-27 -41 -73 -41t-73 41z" />
    <glyph glyph-name="Uacute" unicode="&#xda;" horiz-adv-x="537" 
d="M51 664q0 31 20 50q19 19 47 19t47 -19q20 -19 20 -50v-460q0 -115 84 -115q83 0 83 115v460q0 31 20 50q19 19 47 19t47 -19q20 -19 20 -50v-473q0 -97 -54 -151q-57 -57 -163 -57t-163 57q-55 54 -55 151v473zM299 930q16 16 39 16q17 0 30 -11q14 -13 14 -32
q0 -23 -25 -46l-79 -73q-18 -16 -36 -16q-42 0 -42 44q0 18 15 33z" />
    <glyph glyph-name="Ucircumflex" unicode="&#xdb;" horiz-adv-x="537" 
d="M51 664q0 31 20 50q19 19 47 19t47 -19q20 -19 20 -50v-460q0 -115 84 -115q83 0 83 115v460q0 31 20 50q19 19 47 19t47 -19q20 -19 20 -50v-473q0 -97 -54 -151q-57 -57 -163 -57t-163 57q-55 54 -55 151v473zM196 905q27 41 73 41t73 -41l43 -65q12 -17 12 -31
q0 -41 -44 -41q-22 0 -36 22l-48 80l-48 -80q-14 -22 -36 -22q-44 0 -44 41q0 14 12 31z" />
    <glyph glyph-name="Udieresis" unicode="&#xdc;" horiz-adv-x="537" 
d="M51 664q0 31 20 50q19 19 47 19t47 -19q20 -19 20 -50v-460q0 -115 84 -115q83 0 83 115v460q0 31 20 50q19 19 47 19t47 -19q20 -19 20 -50v-473q0 -97 -54 -151q-57 -57 -163 -57t-163 57q-55 54 -55 151v473zM129 892q19 20 47 20t47 -20q20 -19 20 -47t-20 -47
q-19 -20 -47 -20t-47 20q-20 19 -20 47t20 47zM315 892q19 20 47 20t47 -20q20 -19 20 -47t-20 -47q-19 -20 -47 -20t-47 20q-20 19 -20 47t20 47z" />
    <glyph glyph-name="Ugrave" unicode="&#xd9;" horiz-adv-x="537" 
d="M51 664q0 31 20 50q19 19 47 19t47 -19q20 -19 20 -50v-460q0 -115 84 -115q83 0 83 115v460q0 31 20 50q19 19 47 19t47 -19q20 -19 20 -50v-473q0 -97 -54 -151q-57 -57 -163 -57t-163 57q-55 54 -55 151v473zM181 857q-25 23 -25 46q0 19 14 32q13 11 30 11
q23 0 39 -16l84 -85q15 -15 15 -33q0 -44 -42 -44q-18 0 -36 16z" />
    <glyph glyph-name="Yacute" unicode="&#xdd;" horiz-adv-x="481" 
d="M174 296l-146 329q-12 28 -12 47q0 61 66 61q31 0 45 -13q13 -12 28 -50l86 -228l91 238q20 53 69 53q28 0 46 -17q18 -16 18 -37q0 -19 -10 -41l-147 -335v-247q0 -31 -20 -50q-19 -19 -47 -19t-47 19q-20 19 -20 50v240zM271 930q16 16 39 16q17 0 30 -11
q14 -13 14 -32q0 -23 -25 -46l-79 -73q-18 -16 -36 -16q-42 0 -42 44q0 18 15 33z" />
    <glyph glyph-name="Ydieresis" unicode="&#x178;" horiz-adv-x="481" 
d="M174 296l-146 329q-12 28 -12 47q0 61 66 61q31 0 45 -13q13 -12 28 -50l86 -228l91 238q20 53 69 53q28 0 46 -17q18 -16 18 -37q0 -19 -10 -41l-147 -335v-247q0 -31 -20 -50q-19 -19 -47 -19t-47 19q-20 19 -20 50v240zM101 892q19 20 47 20t47 -20q20 -19 20 -47
t-20 -47q-19 -20 -47 -20t-47 20q-20 19 -20 47t20 47zM287 892q19 20 47 20t47 -20q20 -19 20 -47t-20 -47q-19 -20 -47 -20t-47 20q-20 19 -20 47t20 47z" />
    <glyph glyph-name="Zcaron" unicode="&#x17d;" horiz-adv-x="519" 
d="M110 600q-70 0 -70 60t70 60h308q71 0 71 -59q0 -30 -25 -71l-273 -470h235q70 0 70 -60t-70 -60h-333q-33 0 -53 21q-17 18 -17 42q0 23 22 61l272 476h-207zM144 874q-12 17 -12 31q0 41 44 41q22 0 36 -22l48 -80l48 80q14 22 36 22q44 0 44 -41q0 -14 -12 -31
l-43 -65q-27 -41 -73 -41t-73 41z" />
    <glyph glyph-name="aacute" unicode="&#xe1;" horiz-adv-x="444" 
d="M395 116q0 -20 4 -47q3 -28 3 -34q0 -48 -61 -48q-64 0 -64 69l-2 -1q-31 -68 -111 -68q-126 0 -126 145q0 117 87 163l109 57q39 20 39 57q0 54 -47 54q-53 0 -60 -64q-5 -39 -58 -39q-64 0 -64 50q0 68 50 107q46 37 120 37q111 0 152 -47q29 -34 29 -113v-278z
M273 280l-43 -30q-64 -45 -64 -103q0 -64 43 -64q29 0 47 29q17 28 17 72v96zM252 751q16 16 39 16q17 0 30 -11q14 -13 14 -32q0 -23 -25 -46l-79 -73q-18 -16 -36 -16q-42 0 -42 44q0 18 15 33z" />
    <glyph glyph-name="acircumflex" unicode="&#xe2;" horiz-adv-x="444" 
d="M395 116q0 -20 4 -47q3 -28 3 -34q0 -48 -61 -48q-64 0 -64 69l-2 -1q-31 -68 -111 -68q-126 0 -126 145q0 117 87 163l109 57q39 20 39 57q0 54 -47 54q-53 0 -60 -64q-5 -39 -58 -39q-64 0 -64 50q0 68 50 107q46 37 120 37q111 0 152 -47q29 -34 29 -113v-278z
M273 280l-43 -30q-64 -45 -64 -103q0 -64 43 -64q29 0 47 29q17 28 17 72v96zM149 726q27 41 73 41t73 -41l43 -65q12 -17 12 -31q0 -41 -44 -41q-22 0 -36 22l-48 80l-48 -80q-14 -22 -36 -22q-44 0 -44 41q0 14 12 31z" />
    <glyph glyph-name="adieresis" unicode="&#xe4;" horiz-adv-x="444" 
d="M395 116q0 -20 4 -47q3 -28 3 -34q0 -48 -61 -48q-64 0 -64 69l-2 -1q-31 -68 -111 -68q-126 0 -126 145q0 117 87 163l109 57q39 20 39 57q0 54 -47 54q-53 0 -60 -64q-5 -39 -58 -39q-64 0 -64 50q0 68 50 107q46 37 120 37q111 0 152 -47q29 -34 29 -113v-278z
M273 280l-43 -30q-64 -45 -64 -103q0 -64 43 -64q29 0 47 29q17 28 17 72v96zM82 713q19 20 47 20t47 -20q20 -19 20 -47t-20 -47q-19 -20 -47 -20t-47 20q-20 19 -20 47t20 47zM268 713q19 20 47 20t47 -20q20 -19 20 -47t-20 -47q-19 -20 -47 -20t-47 20q-20 19 -20 47
t20 47z" />
    <glyph glyph-name="agrave" unicode="&#xe0;" horiz-adv-x="444" 
d="M395 116q0 -20 4 -47q3 -28 3 -34q0 -48 -61 -48q-64 0 -64 69l-2 -1q-31 -68 -111 -68q-126 0 -126 145q0 117 87 163l109 57q39 20 39 57q0 54 -47 54q-53 0 -60 -64q-5 -39 -58 -39q-64 0 -64 50q0 68 50 107q46 37 120 37q111 0 152 -47q29 -34 29 -113v-278z
M273 280l-43 -30q-64 -45 -64 -103q0 -64 43 -64q29 0 47 29q17 28 17 72v96zM134 678q-25 23 -25 46q0 19 14 32q13 11 30 11q23 0 39 -16l84 -85q15 -15 15 -33q0 -44 -42 -44q-18 0 -36 16z" />
    <glyph glyph-name="aring" unicode="&#xe5;" horiz-adv-x="444" 
d="M395 116q0 -20 4 -47q3 -28 3 -34q0 -48 -61 -48q-64 0 -64 69l-2 -1q-31 -68 -111 -68q-126 0 -126 145q0 117 87 163l109 57q39 20 39 57q0 54 -47 54q-53 0 -60 -64q-5 -39 -58 -39q-64 0 -64 50q0 68 50 107q46 37 120 37q111 0 152 -47q29 -34 29 -113v-278z
M273 280l-43 -30q-64 -45 -64 -103q0 -64 43 -64q29 0 47 29q17 28 17 72v96zM157 770q31 31 75 31t75 -31t31 -75t-31 -75t-75 -31t-75 31t-31 75t31 75zM198 661q14 -14 34 -14t34 14t14 34t-14 34t-34 14t-34 -14t-14 -34t14 -34z" />
    <glyph glyph-name="atilde" unicode="&#xe3;" horiz-adv-x="444" 
d="M395 116q0 -20 4 -47q3 -28 3 -34q0 -48 -61 -48q-64 0 -64 69l-2 -1q-31 -68 -111 -68q-126 0 -126 145q0 117 87 163l109 57q39 20 39 57q0 54 -47 54q-53 0 -60 -64q-5 -39 -58 -39q-64 0 -64 50q0 68 50 107q46 37 120 37q111 0 152 -47q29 -34 29 -113v-278z
M273 280l-43 -30q-64 -45 -64 -103q0 -64 43 -64q29 0 47 29q17 28 17 72v96zM89 692q32 28 66 28q29 0 69 -13q41 -13 48 -13q16 0 38 18q23 17 37 17q40 0 40 -36q0 -32 -30 -60q-30 -30 -67 -30q-10 0 -63 13q-54 13 -60 13q-13 0 -33 -17t-34 -17q-43 0 -43 40
q0 29 32 57z" />
    <glyph glyph-name="eacute" unicode="&#xe9;" horiz-adv-x="426" 
d="M272 340v45q0 73 -53 73t-53 -73v-45h106zM38 327q0 118 31 165q40 62 155 62q93 0 133 -53q37 -50 37 -160q0 -44 -11 -62q-15 -25 -57 -25h-160v-55q0 -58 9 -82q12 -34 46 -34q19 0 33 17q13 17 14 39q2 65 60 65q62 0 62 -60q0 -73 -46 -115q-45 -42 -120 -42
q-115 0 -155 62q-31 47 -31 165v113zM249 751q16 16 39 16q17 0 30 -11q14 -13 14 -32q0 -23 -25 -46l-79 -73q-18 -16 -36 -16q-42 0 -42 44q0 18 15 33z" />
    <glyph glyph-name="ecircumflex" unicode="&#xea;" horiz-adv-x="426" 
d="M272 340v45q0 73 -53 73t-53 -73v-45h106zM38 327q0 118 31 165q40 62 155 62q93 0 133 -53q37 -50 37 -160q0 -44 -11 -62q-15 -25 -57 -25h-160v-55q0 -58 9 -82q12 -34 46 -34q19 0 33 17q13 17 14 39q2 65 60 65q62 0 62 -60q0 -73 -46 -115q-45 -42 -120 -42
q-115 0 -155 62q-31 47 -31 165v113zM146 726q27 41 73 41t73 -41l43 -65q12 -17 12 -31q0 -41 -44 -41q-22 0 -36 22l-48 80l-48 -80q-14 -22 -36 -22q-44 0 -44 41q0 14 12 31z" />
    <glyph glyph-name="edieresis" unicode="&#xeb;" horiz-adv-x="426" 
d="M272 340v45q0 73 -53 73t-53 -73v-45h106zM38 327q0 118 31 165q40 62 155 62q93 0 133 -53q37 -50 37 -160q0 -44 -11 -62q-15 -25 -57 -25h-160v-55q0 -58 9 -82q12 -34 46 -34q19 0 33 17q13 17 14 39q2 65 60 65q62 0 62 -60q0 -73 -46 -115q-45 -42 -120 -42
q-115 0 -155 62q-31 47 -31 165v113zM79 713q19 20 47 20t47 -20q20 -19 20 -47t-20 -47q-19 -20 -47 -20t-47 20q-20 19 -20 47t20 47zM265 713q19 20 47 20t47 -20q20 -19 20 -47t-20 -47q-19 -20 -47 -20t-47 20q-20 19 -20 47t20 47z" />
    <glyph glyph-name="egrave" unicode="&#xe8;" horiz-adv-x="426" 
d="M272 340v45q0 73 -53 73t-53 -73v-45h106zM38 327q0 118 31 165q40 62 155 62q93 0 133 -53q37 -50 37 -160q0 -44 -11 -62q-15 -25 -57 -25h-160v-55q0 -58 9 -82q12 -34 46 -34q19 0 33 17q13 17 14 39q2 65 60 65q62 0 62 -60q0 -73 -46 -115q-45 -42 -120 -42
q-115 0 -155 62q-31 47 -31 165v113zM131 678q-25 23 -25 46q0 19 14 32q13 11 30 11q23 0 39 -16l84 -85q15 -15 15 -33q0 -44 -42 -44q-18 0 -36 16z" />
    <glyph glyph-name="iacute" unicode="&#xed;" 
d="M67 481q0 73 61 73t61 -73v-421q0 -73 -61 -73t-61 73v421zM158 751q16 16 39 16q17 0 30 -11q14 -13 14 -32q0 -23 -25 -46l-79 -73q-18 -16 -36 -16q-42 0 -42 44q0 18 15 33z" />
    <glyph glyph-name="icircumflex" unicode="&#xee;" 
d="M126 481q0 73 61 73t61 -73v-421q0 -73 -61 -73t-61 73v421zM114 726q27 41 73 41t73 -41l43 -65q12 -17 12 -31q0 -41 -44 -41q-22 0 -36 22l-48 80l-48 -80q-14 -22 -36 -22q-44 0 -44 41q0 14 12 31z" />
    <glyph glyph-name="idieresis" unicode="&#xef;" 
d="M158 481q0 73 61 73t61 -73v-421q0 -73 -61 -73t-61 73v421zM79 713q19 20 47 20t47 -20q20 -19 20 -47t-20 -47q-19 -20 -47 -20t-47 20q-20 19 -20 47t20 47zM265 713q19 20 47 20t47 -20q20 -19 20 -47t-20 -47q-19 -20 -47 -20t-47 20q-20 19 -20 47t20 47z" />
    <glyph glyph-name="igrave" unicode="&#xec;" 
d="M111 481q0 73 61 73t61 -73v-421q0 -73 -61 -73t-61 73v421zM84 678q-25 23 -25 46q0 19 14 32q13 11 30 11q23 0 39 -16l84 -85q15 -15 15 -33q0 -44 -42 -44q-18 0 -36 16z" />
    <glyph glyph-name="ntilde" unicode="&#xf1;" horiz-adv-x="463" 
d="M54 481q0 73 61 73t61 -70h2q30 70 114 70q117 0 117 -134v-360q0 -73 -61 -73t-61 73v331q0 57 -47 57q-64 0 -64 -97v-291q0 -73 -61 -73t-61 73v421zM105 692q32 28 66 28q29 0 69 -13q41 -13 48 -13q16 0 38 18q23 17 37 17q40 0 40 -36q0 -32 -30 -60
q-30 -30 -67 -30q-10 0 -63 13q-54 13 -60 13q-13 0 -33 -17t-34 -17q-43 0 -43 40q0 29 32 57z" />
    <glyph glyph-name="oacute" unicode="&#xf3;" horiz-adv-x="444" 
d="M166 207q0 -73 13 -99q12 -25 43 -25t43 25q13 26 13 99v129q0 70 -14 98q-13 24 -42 24t-41 -24q-15 -28 -15 -98v-129zM38 344q0 210 184 210t184 -210v-147q0 -210 -184 -210t-184 210v147zM252 751q16 16 39 16q17 0 30 -11q14 -13 14 -32q0 -23 -25 -46l-79 -73
q-18 -16 -36 -16q-42 0 -42 44q0 18 15 33z" />
    <glyph glyph-name="ocircumflex" unicode="&#xf4;" horiz-adv-x="444" 
d="M166 207q0 -73 13 -99q12 -25 43 -25t43 25q13 26 13 99v129q0 70 -14 98q-13 24 -42 24t-41 -24q-15 -28 -15 -98v-129zM38 344q0 210 184 210t184 -210v-147q0 -210 -184 -210t-184 210v147zM149 726q27 41 73 41t73 -41l43 -65q12 -17 12 -31q0 -41 -44 -41
q-22 0 -36 22l-48 80l-48 -80q-14 -22 -36 -22q-44 0 -44 41q0 14 12 31z" />
    <glyph glyph-name="odieresis" unicode="&#xf6;" horiz-adv-x="444" 
d="M166 207q0 -73 13 -99q12 -25 43 -25t43 25q13 26 13 99v129q0 70 -14 98q-13 24 -42 24t-41 -24q-15 -28 -15 -98v-129zM38 344q0 210 184 210t184 -210v-147q0 -210 -184 -210t-184 210v147zM82 713q19 20 47 20t47 -20q20 -19 20 -47t-20 -47q-19 -20 -47 -20t-47 20
q-20 19 -20 47t20 47zM268 713q19 20 47 20t47 -20q20 -19 20 -47t-20 -47q-19 -20 -47 -20t-47 20q-20 19 -20 47t20 47z" />
    <glyph glyph-name="ograve" unicode="&#xf2;" horiz-adv-x="444" 
d="M166 207q0 -73 13 -99q12 -25 43 -25t43 25q13 26 13 99v129q0 70 -14 98q-13 24 -42 24t-41 -24q-15 -28 -15 -98v-129zM38 344q0 210 184 210t184 -210v-147q0 -210 -184 -210t-184 210v147zM134 678q-25 23 -25 46q0 19 14 32q13 11 30 11q23 0 39 -16l84 -85
q15 -15 15 -33q0 -44 -42 -44q-18 0 -36 16z" />
    <glyph glyph-name="otilde" unicode="&#xf5;" horiz-adv-x="444" 
d="M166 207q0 -73 13 -99q12 -25 43 -25t43 25q13 26 13 99v129q0 70 -14 98q-13 24 -42 24t-41 -24q-15 -28 -15 -98v-129zM38 344q0 210 184 210t184 -210v-147q0 -210 -184 -210t-184 210v147zM89 692q32 28 66 28q29 0 69 -13q41 -13 48 -13q16 0 38 18q23 17 37 17
q40 0 40 -36q0 -32 -30 -60q-30 -30 -67 -30q-10 0 -63 13q-54 13 -60 13q-13 0 -33 -17t-34 -17q-43 0 -43 40q0 29 32 57z" />
    <glyph glyph-name="scaron" unicode="&#x161;" horiz-adv-x="407" 
d="M118 265q-82 61 -82 143q0 71 47 110q44 36 120 36q86 0 131 -50q33 -37 33 -83q0 -60 -64 -60q-47 0 -50 47q-3 55 -53 55q-42 0 -42 -42q0 -32 27 -52l75 -57q64 -48 87 -77q29 -38 29 -89q0 -77 -51 -119q-48 -40 -126 -40q-89 0 -133 51q-35 40 -35 98q0 61 58 61
t64 -75q4 -44 53 -44q48 0 48 50q0 35 -43 68zM88 695q-12 17 -12 31q0 41 44 41q22 0 36 -22l48 -80l48 80q14 22 36 22q44 0 44 -41q0 -14 -12 -31l-43 -65q-27 -41 -73 -41t-73 41z" />
    <glyph glyph-name="uacute" unicode="&#xfa;" horiz-adv-x="463" 
d="M54 481q0 73 61 73t61 -73v-331q0 -57 47 -57q64 0 64 97v291q0 73 61 73t61 -73v-421q0 -73 -61 -73t-61 70h-2q-30 -70 -114 -70q-117 0 -117 134v360zM268 751q16 16 39 16q17 0 30 -11q14 -13 14 -32q0 -23 -25 -46l-79 -73q-18 -16 -36 -16q-42 0 -42 44q0 18 15 33
z" />
    <glyph glyph-name="ucircumflex" unicode="&#xfb;" horiz-adv-x="463" 
d="M54 481q0 73 61 73t61 -73v-331q0 -57 47 -57q64 0 64 97v291q0 73 61 73t61 -73v-421q0 -73 -61 -73t-61 70h-2q-30 -70 -114 -70q-117 0 -117 134v360zM165 726q27 41 73 41t73 -41l43 -65q12 -17 12 -31q0 -41 -44 -41q-22 0 -36 22l-48 80l-48 -80q-14 -22 -36 -22
q-44 0 -44 41q0 14 12 31z" />
    <glyph glyph-name="udieresis" unicode="&#xfc;" horiz-adv-x="463" 
d="M54 481q0 73 61 73t61 -73v-331q0 -57 47 -57q64 0 64 97v291q0 73 61 73t61 -73v-421q0 -73 -61 -73t-61 70h-2q-30 -70 -114 -70q-117 0 -117 134v360zM98 713q19 20 47 20t47 -20q20 -19 20 -47t-20 -47q-19 -20 -47 -20t-47 20q-20 19 -20 47t20 47zM284 713
q19 20 47 20t47 -20q20 -19 20 -47t-20 -47q-19 -20 -47 -20t-47 20q-20 19 -20 47t20 47z" />
    <glyph glyph-name="ugrave" unicode="&#xf9;" horiz-adv-x="463" 
d="M54 481q0 73 61 73t61 -73v-331q0 -57 47 -57q64 0 64 97v291q0 73 61 73t61 -73v-421q0 -73 -61 -73t-61 70h-2q-30 -70 -114 -70q-117 0 -117 134v360zM150 678q-25 23 -25 46q0 19 14 32q13 11 30 11q23 0 39 -16l84 -85q15 -15 15 -33q0 -44 -42 -44q-18 0 -36 16z
" />
    <glyph glyph-name="yacute" unicode="&#xfd;" horiz-adv-x="426" 
d="M24 465q-5 28 -5 32q0 57 65 57q55 0 63 -47l71 -377h2l60 357q12 67 66 67q61 0 61 -54q0 -11 -7 -39l-127 -535q-19 -81 -47 -106q-30 -27 -106 -27q-57 0 -57 53q0 41 48 46q21 2 27 6q12 7 12 28q0 15 -4 30zM243 751q16 16 39 16q17 0 30 -11q14 -13 14 -32
q0 -23 -25 -46l-79 -73q-18 -16 -36 -16q-42 0 -42 44q0 18 15 33z" />
    <glyph glyph-name="ydieresis" unicode="&#xff;" horiz-adv-x="426" 
d="M24 465q-5 28 -5 32q0 57 65 57q55 0 63 -47l71 -377h2l60 357q12 67 66 67q61 0 61 -54q0 -11 -7 -39l-127 -535q-19 -81 -47 -106q-30 -27 -106 -27q-57 0 -57 53q0 41 48 46q21 2 27 6q12 7 12 28q0 15 -4 30zM73 713q19 20 47 20t47 -20q20 -19 20 -47t-20 -47
q-19 -20 -47 -20t-47 20q-20 19 -20 47t20 47zM259 713q19 20 47 20t47 -20q20 -19 20 -47t-20 -47q-19 -20 -47 -20t-47 20q-20 19 -20 47t20 47z" />
    <glyph glyph-name="zcaron" unicode="&#x17e;" horiz-adv-x="426" 
d="M334 541q63 0 63 -42q0 -24 -22 -63l-193 -330h157q61 0 61 -52q0 -54 -61 -54h-254q-59 0 -59 51q0 24 17 54l193 330h-147q-61 0 -61 52q0 54 61 54h245zM97 695q-12 17 -12 31q0 41 44 41q22 0 36 -22l48 -80l48 80q14 22 36 22q44 0 44 -41q0 -14 -12 -31l-43 -65
q-27 -41 -73 -41t-73 41z" />
    <glyph glyph-name="Aogonek" unicode="&#x104;" horiz-adv-x="520" 
d="M317 286l-59 299h-2l-61 -299h122zM392 0q-3 2 -6 5q-17 19 -27 69l-21 106h-165l-27 -130q-13 -63 -70 -63q-63 0 -63 58q0 23 8 55l128 539q13 56 33 74q22 20 77 20q51 0 74 -20q23 -19 36 -74l127 -535q10 -44 10 -55q0 -62 -66 -62h-1q-52 -54 -51 -95q0 -39 47 -45
q7 0 24 6q18 5 27 5q20 -10 20 -35q0 -38 -78 -38q-50 0 -83 24q-35 26 -35 66q-1 84 82 125z" />
    <glyph glyph-name="aogonek" unicode="&#x105;" horiz-adv-x="444" 
d="M273 280l-43 -30q-64 -45 -64 -103q0 -64 43 -64q29 0 47 29q17 28 17 72v96zM339 -13q-52 -54 -51 -95q0 -39 47 -45q7 0 24 6q18 5 27 5q20 -10 20 -35q0 -38 -78 -38q-50 0 -83 24q-35 26 -35 66q-1 85 84 128q-17 17 -17 53l-2 -1q-31 -68 -111 -68q-126 0 -126 145
q0 117 87 163l109 57q39 20 39 57q0 54 -47 54q-53 0 -60 -64q-5 -39 -58 -39q-64 0 -64 50q0 68 50 107q46 37 120 37q111 0 152 -47q29 -34 29 -113v-278q0 -20 4 -47q3 -28 3 -34q0 -48 -61 -48h-2z" />
    <glyph glyph-name="Cacute" unicode="&#x106;" horiz-adv-x="500" 
d="M290 930q16 16 39 16q17 0 30 -11q14 -13 14 -32q0 -23 -25 -46l-79 -73q-18 -16 -36 -16q-42 0 -42 44q0 18 15 33zM40 410q0 185 55 259q51 68 176 68q96 0 151 -53q51 -49 51 -127q0 -80 -68 -80q-38 0 -52 18q-14 16 -20 63q-10 73 -62 73q-50 0 -68 -40
q-23 -51 -23 -202v-40q0 -147 12 -194q18 -66 75 -66q26 0 46 21q20 22 21 52q3 63 17 85q14 25 55 25q68 0 68 -79q0 -210 -218 -210q-139 0 -187 104q-29 64 -29 209v114z" />
    <glyph glyph-name="cacute" unicode="&#x107;" horiz-adv-x="427" 
d="M268 751q16 16 39 16q17 0 30 -11q14 -13 14 -32q0 -23 -25 -46l-79 -73q-18 -16 -36 -16q-42 0 -42 44q0 18 15 33zM42 320q0 117 28 166q40 68 151 68q92 0 137 -56q32 -40 32 -92q0 -69 -60 -69q-62 0 -62 69q0 52 -46 52q-33 0 -44 -36q-8 -26 -8 -91v-120
q0 -69 11 -98q12 -30 41 -30q45 0 46 55q4 88 62 88q60 0 60 -71q0 -60 -30 -104q-44 -64 -139 -64q-111 0 -151 68q-28 49 -28 166v99z" />
    <glyph glyph-name="Eogonek" unicode="&#x118;" horiz-adv-x="500" 
d="M397 0q-44 -39 -51 -100q3 -47 50 -53q7 0 24 6q18 5 27 5q20 -10 20 -35q0 -38 -78 -38q-50 0 -83 24q-35 26 -35 66q-3 87 73 125h-216q-72 0 -72 72v576q0 72 72 72h261q70 0 70 -60t-70 -60h-199v-166h186q70 0 70 -60t-70 -60h-186v-194h206q70 0 70 -60t-69 -60z
" />
    <glyph glyph-name="eogonek" unicode="&#x119;" horiz-adv-x="427" 
d="M272 340v45q0 73 -53 73t-53 -73v-45h106zM233 -13h-9q-115 0 -155 62q-31 47 -31 165v113q0 118 31 165q40 62 155 62q93 0 133 -53q37 -50 37 -160q0 -44 -11 -62q-15 -25 -57 -25h-160v-55q0 -58 9 -82q12 -34 46 -34q19 0 33 17q13 17 14 39q2 65 60 65q62 0 62 -60
q0 -73 -46 -115q-11 -10 -24 -18q-56 -42 -64 -111q3 -47 50 -53q7 0 24 6q18 5 27 5q20 -10 20 -35q0 -38 -78 -38q-50 0 -83 24q-35 26 -35 66q-2 73 52 112z" />
    <glyph glyph-name="Nacute" unicode="&#x143;" horiz-adv-x="575" 
d="M56 664q0 69 74 69q65 0 93 -68l159 -394h2v393q0 31 20 50q19 19 47 19t47 -19q20 -19 20 -50v-602q0 -35 -20 -55q-19 -20 -47 -20q-42 0 -62 13q-22 14 -38 55l-159 400h-2v-399q0 -31 -20 -50q-19 -19 -47 -19t-47 19q-20 19 -20 50v608zM290 930q16 16 39 16
q17 0 30 -11q14 -13 14 -32q0 -23 -25 -46l-79 -73q-18 -16 -36 -16q-42 0 -42 44q0 18 15 33z" />
    <glyph glyph-name="nacute" unicode="&#x144;" horiz-adv-x="463" 
d="M268 751q16 16 39 16q17 0 30 -11q14 -13 14 -32q0 -23 -25 -46l-79 -73q-18 -16 -36 -16q-42 0 -42 44q0 18 15 33zM54 481q0 73 61 73t61 -70h2q30 70 114 70q117 0 117 -134v-360q0 -73 -61 -73t-61 73v331q0 57 -47 57q-64 0 -64 -97v-291q0 -73 -61 -73t-61 73v421z
" />
    <glyph glyph-name="Sacute" unicode="&#x15a;" horiz-adv-x="500" 
d="M290 930q16 16 39 16q17 0 30 -11q14 -13 14 -32q0 -23 -25 -46l-79 -73q-18 -16 -36 -16q-42 0 -42 44q0 18 15 33zM132 371q-91 65 -91 178q0 91 63 142q58 46 149 46q102 0 156 -63q43 -50 43 -118t-66 -68q-38 0 -52 19q-11 14 -16 57q-8 67 -72 67q-31 0 -51 -18
q-20 -19 -20 -51q0 -59 72 -107l99 -65q117 -77 117 -205q0 -95 -56 -147q-59 -55 -172 -55t-165 82q-33 52 -33 109q0 91 68 91q61 0 66 -87q5 -89 80 -89q78 0 78 84q0 58 -68 107z" />
    <glyph glyph-name="sacute" unicode="&#x15b;" horiz-adv-x="408" 
d="M268 751q16 16 39 16q17 0 30 -11q14 -13 14 -32q0 -23 -25 -46l-79 -73q-18 -16 -36 -16q-42 0 -42 44q0 18 15 33zM118 265q-82 61 -82 143q0 71 47 110q44 36 120 36q86 0 131 -50q33 -37 33 -83q0 -60 -64 -60q-47 0 -50 47q-3 55 -53 55q-42 0 -42 -42q0 -32 27 -52
l75 -57q64 -48 87 -77q29 -38 29 -89q0 -77 -51 -119q-48 -40 -126 -40q-89 0 -133 51q-35 40 -35 98q0 61 58 61t64 -75q4 -44 53 -44q48 0 48 50q0 35 -43 68z" />
    <glyph glyph-name="Zacute" unicode="&#x179;" horiz-adv-x="520" 
d="M290 930q16 16 39 16q17 0 30 -11q14 -13 14 -32q0 -23 -25 -46l-79 -73q-18 -16 -36 -16q-42 0 -42 44q0 18 15 33zM110 600q-70 0 -70 60t70 60h308q71 0 71 -59q0 -30 -25 -71l-273 -470h235q70 0 70 -60t-70 -60h-333q-33 0 -53 21q-17 18 -17 42q0 23 22 61l272 476
h-207z" />
    <glyph glyph-name="zacute" unicode="&#x17a;" horiz-adv-x="427" 
d="M252 751q16 16 39 16q17 0 30 -11q14 -13 14 -32q0 -23 -25 -46l-79 -73q-18 -16 -36 -16q-42 0 -42 44q0 18 15 33zM334 541q63 0 63 -42q0 -24 -22 -63l-193 -330h157q61 0 61 -52q0 -54 -61 -54h-254q-59 0 -59 51q0 24 17 54l193 330h-147q-61 0 -61 52q0 54 61 54
h245z" />
    <glyph glyph-name="Zdotaccent" unicode="&#x17b;" horiz-adv-x="500" 
d="M110 600q-70 0 -70 60t70 60h308q71 0 71 -59q0 -30 -25 -71l-273 -470h235q70 0 70 -60t-70 -60h-333q-33 0 -53 21q-17 18 -17 42q0 23 22 61l272 476h-207zM203 892q19 20 47 20t47 -20q20 -19 20 -47t-20 -47q-19 -20 -47 -20t-47 20q-20 19 -20 47t20 47z" />
    <glyph glyph-name="zdotaccent" unicode="&#x17c;" horiz-adv-x="427" 
d="M174 713q19 20 47 20t47 -20q20 -19 20 -47t-20 -47q-19 -20 -47 -20t-47 20q-20 19 -20 47t20 47zM334 541q63 0 63 -42q0 -24 -22 -63l-193 -330h157q61 0 61 -52q0 -54 -61 -54h-254q-59 0 -59 51q0 24 17 54l193 330h-147q-61 0 -61 52q0 54 61 54h245z" />
    </font>
</defs>
</svg>
